<svg width="1481" height="617" viewBox="0 0 1481 617" fill="none" xmlns="http://www.w3.org/2000/svg">
<path d="M383.188 132.512C244.463 149.643 71.5 50 0 0L1470.22 0.000143118C1444.34 14.1806 1404.23 63.7507 1450.81 148.587C1497.4 233.423 1494.81 439.27 1409.4 489.535C1324 539.801 1317.68 469.037 1067.78 582.633C802.426 703.248 672 477 635.5 332.5C626.5 197.5 525 115 383.188 132.512Z" fill="#A09ADB" fill-opacity="0.85"/>
<path d="M1328.52 137.541L1193.81 137.629L1191.24 268.184L1325.95 268.095L1328.52 137.541Z" fill="#CE8DCB"/>
<path d="M1231.57 449.868L880.111 450.1C875.684 450.103 872.099 446.598 872.184 442.29L876.602 218.15C876.686 213.869 880.383 210.333 884.838 210.33L1236.32 210.098C1240.75 210.095 1244.34 213.6 1244.25 217.907L1239.83 442.073C1239.72 446.355 1236.02 449.865 1231.57 449.868Z" fill="#FEFEFE"/>
<path d="M825.414 309.192L825.899 284.442C825.899 284.442 815.68 287.022 814.617 277.941C813.553 268.86 822.997 268.133 824.701 268.801C826.404 269.469 829.596 271.036 829.596 271.036C829.596 271.036 834.5 267.431 836.391 263.931C838.282 260.431 839.462 252.789 839.462 252.789C839.462 252.789 846.042 259.345 851.797 259.496C857.578 259.646 861.474 259.001 861.474 259.001L861.667 261.239C861.667 261.239 866.39 264.194 866.156 270.729C865.923 277.264 863.83 280.25 862.072 280.997L861.637 291.108C861.637 291.108 860.479 298.981 852.205 299.295L853.264 309.972L847.143 331.2L825.414 309.192Z" fill="#FEFEFE"/>
<path d="M819.181 317.661C819.181 317.661 799.003 320.97 790.002 332.072C781.001 343.174 771.711 355.487 765.208 371.788C758.705 388.089 759.01 387.419 756.278 395.428C753.547 403.437 750.862 418.551 750.277 426.713C749.665 434.875 752.079 448.441 763.184 454.484C774.289 460.527 780.358 460.883 780.358 460.883C780.358 460.883 780.08 470.975 779.898 474.863C779.715 478.777 779.901 484.132 779.901 484.132L899.361 484.053C899.361 484.053 896.172 470.796 895.635 465.699C895.099 460.602 894.406 448.605 894.406 448.605L884.103 448.998C884.103 448.998 871.345 444.707 871.163 435.026C870.982 425.346 871.735 405.934 871.735 405.934L876.795 400.961C876.795 400.961 874.083 391.798 865.569 383.539C857.054 375.306 856.379 374.534 856.379 374.534C856.379 374.534 863.617 362.661 865.218 359.519C866.82 356.351 868.192 349.991 872.631 350.915L873.088 322.285L859.934 317.866L819.181 317.661Z" fill="#3E487F"/>
<path d="M825.987 309.868L818.785 317.873L834.058 351.793L836.974 348.421L846.585 376.404L851.327 372.773L855.477 375.06L859.561 368.652L857.709 345.964L858.583 347.173L859.285 318.052L853.206 309.13L825.987 309.868Z" fill="#FEFEFE"/>
<path d="M1339.85 309.351C1339.85 309.351 1323.4 310.135 1319.2 295.189C1314.99 280.243 1322.76 273.975 1326.06 272.555C1329.39 271.161 1332.5 264.999 1333.87 262.704C1335.25 260.409 1338.62 254.453 1345.93 253.675C1353.22 252.897 1358.81 254.388 1361.59 257.788C1361.59 257.788 1369.19 255.928 1374.6 258.63C1380 261.333 1385.05 264.861 1388.25 272.849C1388.25 272.849 1390.1 278.982 1389.11 283.364C1388.11 287.746 1386.52 290.17 1387.98 293.262C1389.46 296.354 1390.84 297.925 1388.49 301.071C1386.14 304.217 1377.79 309.069 1372.59 309.33L1339.85 309.351Z" fill="#A5AEDF"/>
<path d="M1314.2 341.413C1314.2 341.413 1320.75 332.78 1330.12 329.58C1339.48 326.38 1350.38 323.849 1354.63 323.64L1378.35 323.238C1378.35 323.238 1393.73 322.584 1400.15 325.542C1406.61 328.525 1412.15 329.217 1420.1 346.597C1420.1 346.597 1428.74 362.689 1430.77 367.272C1432.78 371.856 1440.11 389.777 1441.37 399.048C1442.62 408.32 1445.54 424.827 1435.9 439.154C1435.9 439.154 1429.82 448.044 1426.38 448.742L1425.56 485.11L1305.13 485.189C1305.13 485.189 1309.26 476.275 1310.37 466.075C1311.5 455.874 1311.92 450.337 1311.92 450.337C1311.92 450.337 1295.56 451.12 1287.28 437.32C1287.28 437.32 1278.59 426.071 1276.98 418.886C1275.37 411.727 1273.76 408.56 1273.76 408.56L1314.2 341.413Z" fill="#11194E"/>
<path d="M1334.04 281.79C1334.04 281.79 1336.97 297.992 1338.23 303.136C1339.5 308.279 1342.37 316.765 1351.01 315.267L1351.55 315.987L1353.86 325.863C1353.86 325.863 1351.32 342.325 1355.93 342.785C1360.55 343.245 1373.31 329.142 1376.1 325.231L1369.57 298.331C1369.57 298.331 1378.28 296.191 1376.47 288.99C1376.47 288.99 1375.33 282.587 1366.46 284.933C1366.46 284.933 1361.72 282.235 1360.44 276.089C1359.14 269.943 1358.51 267.165 1358.51 267.165C1358.51 267.165 1354.19 272.749 1347.23 274.22C1340.3 275.665 1334.87 279.784 1334.04 281.79Z" fill="#FEFEFE"/>
<path d="M1347.01 369.494L1341.86 375.602L1340.38 371.147C1340.38 371.173 1345.67 368.671 1347.01 369.494Z" fill="#FEFEFE"/>
<path d="M1357.45 369.959L1349.68 378.72L1343.9 380.346L1351.56 403.211C1351.56 403.211 1357.41 402.821 1359.17 402.459C1359.17 402.459 1363.68 405.856 1366.69 412.138C1366.69 412.138 1372.81 408.786 1377.04 404.868C1381.26 400.951 1386.68 394.303 1386.68 394.303C1386.68 394.303 1378.39 383.234 1374.27 379.09C1370.13 374.921 1367.09 371.446 1357.45 369.959Z" fill="#FEFEFE"/>
<path d="M1270.58 368.187L1273.89 377.477C1273.89 377.477 1282.27 378.785 1286.21 378.37C1290.14 377.956 1295.66 378.724 1295.11 382.792C1294.55 386.86 1293.17 388.431 1293.17 388.431C1293.17 388.431 1296.8 390.874 1296.36 393.448C1295.91 395.997 1294.46 398.263 1294.46 398.263C1294.46 398.263 1296.57 398.803 1296.73 401.608C1296.88 404.414 1295.59 406.629 1292.02 407.815C1288.44 409.002 1279.07 411.016 1271.43 408.318C1263.79 405.62 1262.06 391.309 1261.71 386.263C1261.36 381.192 1263.71 372.104 1270.58 368.187Z" fill="#FEFEFE"/>
<path d="M1070.96 291.615C1070.96 291.615 1067.03 287.446 1059.61 286.679C1052.16 285.911 1051.82 287.25 1051.82 287.25C1051.82 287.25 1048 285.502 1045.56 286.688C1043.12 287.874 1043.58 291.376 1043.58 291.376C1043.58 291.376 1040.01 293.464 1041.69 299.978C1041.69 299.978 1041.17 306.158 1045.23 311.743C1049.29 317.328 1050.95 319.181 1052.07 321.498C1053.19 323.815 1054.28 327.96 1054.28 327.96C1054.28 327.96 1062.81 323.937 1068.76 323.753C1074.71 323.569 1080.96 324.312 1080.96 324.312C1080.96 324.312 1079.26 316.562 1079.31 315.12C1079.34 313.704 1079.26 308.425 1078.63 306.391C1078.04 304.357 1076.08 299.955 1076.08 299.955L1063.24 299.243L1055.59 291.342L1070.96 291.615Z" fill="#FEFEFE"/>
<path d="M1161.85 326.681C1161.81 327.094 1161.63 329.517 1161.63 329.517L1165.44 329.386L1161.85 326.681Z" fill="#FEFEFE"/>
<path d="M1173.94 303.391C1173.94 303.391 1179.86 307.198 1183.88 302.381C1187.91 297.564 1184.79 292.88 1182.87 291.851C1180.95 290.823 1176.57 289.564 1173.39 292.115C1173.39 292.115 1166.81 290.935 1164.03 283.702C1161.26 276.444 1161.12 269.699 1161.12 269.699C1161.12 269.699 1156.31 270.217 1152.64 278.818L1150.17 292.465C1150.17 292.465 1143.11 293.757 1142.54 295.894C1141.96 298.032 1147 302.302 1147 302.302C1147 302.302 1144.25 316.49 1157.93 317.511C1157.93 317.511 1160.77 312.051 1164.72 310.503C1168.68 308.956 1172.12 308.13 1173.1 307.151C1174.07 306.146 1175.28 305.244 1173.94 303.391Z" fill="#FEFEFE"/>
<path d="M1341.93 375.657L1355.86 359.966L1361.66 364.778L1349.28 378.717L1343.99 380.214L1341.93 375.657Z" fill="#DBD8FF"/>
<path d="M1355.85 360.014L1358.13 357.437L1363.82 361.787L1361.67 364.391L1355.85 360.014Z" fill="#FEFEFE"/>
<path d="M1274.07 376.963L1263.6 345.623L1326.39 345.582L1355.86 434.065L1293.47 434.234L1274.07 376.963Z" fill="#FEFEFE"/>
<path d="M1268.67 344.922L1267.69 341.986L1330.03 341.765L1360.16 430.633L1354.81 430.637L1326.39 345.605L1268.67 344.922Z" fill="#A93B9E"/>
<path d="M1174.97 304.32C1174.97 304.32 1174.61 307.615 1170.84 308.132C1167.07 308.649 1159.84 312.489 1158.51 316.942C1157.2 321.396 1159.02 328.627 1172.11 330.986C1185.2 333.345 1194.03 331.563 1196.87 330.198C1199.7 328.832 1205.97 326.305 1205.41 320.18C1204.81 314.055 1198.89 310.79 1197.72 309.787C1196.54 308.81 1196.93 306.597 1197.48 304.306C1198 302.015 1202.55 287.393 1202.74 285.952C1202.93 284.51 1203.94 277.612 1200.25 272.467C1196.56 267.348 1186.7 265.012 1186.7 265.012C1186.7 265.012 1176.84 261.724 1170.26 261.934C1163.69 262.145 1156.85 262.304 1154.28 266.5C1151.71 270.697 1149.3 274.714 1152.22 281.301C1152.22 281.301 1152.9 273.167 1161.27 269.404C1161.27 269.404 1162.24 282.143 1165.24 285.77C1168.24 289.397 1170.26 291.892 1173.14 292.071C1173.14 292.071 1175.3 290.036 1178.21 290.24C1181.12 290.444 1185.09 292.114 1186.05 297.158C1186.05 297.158 1185.25 304.082 1180.89 304.805C1176.56 305.529 1174.97 304.32 1174.97 304.32Z" fill="#CE8DCB"/>
<path d="M1166.2 329.065C1166.2 329.065 1152.64 330.723 1147.45 336.268C1142.25 341.812 1137.76 348.026 1134.87 354.316C1131.98 360.606 1127.73 370.763 1126.38 373.109C1125.03 375.43 1121.77 382.906 1114.09 381.725C1106.39 380.545 1105.79 374.747 1104.64 371.088C1103.48 367.429 1090.89 327.955 1090.89 327.955C1090.89 327.955 1082.68 321.698 1068.85 323.82C1055.01 325.942 1048.82 334.915 1048.82 334.915C1048.82 334.915 1052.14 356.948 1054.33 365.864C1056.5 374.779 1060.59 390.137 1065.18 399.205C1069.74 408.274 1080.13 424.065 1097.27 427.172C1114.41 430.28 1125.93 427.154 1130.27 425.45L1130.8 425.681L1127.4 484.779L1224.59 484.869L1223.63 435.259C1223.63 435.259 1233.76 441.386 1241.87 436.638C1249.97 431.891 1250.38 424.726 1250.2 420.422C1249.99 416.093 1248.55 405.656 1246.49 399.446C1244.42 393.237 1240.61 381.23 1233.46 368.709C1226.3 356.214 1217.4 343.077 1217.4 343.077C1217.4 343.077 1213.17 336.25 1206.34 332.621C1199.52 328.991 1198.43 329.997 1198.43 329.997C1198.43 329.997 1190.77 332.476 1181.73 331.812C1172.63 331.148 1166.2 329.065 1166.2 329.065Z" fill="#DBD8FF"/>
<path d="M1055.41 291.396L1083.71 292.906L1083.11 300.421L1063.13 299.32L1055.41 291.396Z" fill="#1A1A1A"/>
<path d="M1083.79 292.99L1083.22 300.434L1086.92 300.635L1087.5 293.191L1083.79 292.99Z" fill="#FEFEFE"/>
<path d="M1042.25 290.262L1032.91 294.005L1040.16 297.737C1040.19 297.711 1040.76 291.552 1042.25 290.262Z" fill="#FEFEFE"/>
<path d="M1113.5 504.328L1147.72 500.951L1120.55 489.216L1091.72 491.497L1096.33 494.537L1087.94 494.282L1060.43 506.027L1094.4 509.385L1108.55 501.497L1113.5 504.328Z" fill="#FEFEFE"/>
<path d="M1173.72 376.041C1173.72 376.041 1167.29 419.608 1130.37 435.509L1130.41 425.448C1130.41 425.448 1141.33 423.125 1153.26 410.714C1165.22 398.278 1173.72 376.041 1173.72 376.041Z" fill="#1A1A1A"/>
<path d="M1296.66 404.006C1296.66 404.006 1294.79 412.461 1286.44 413.395L1284.57 409.401C1284.57 409.375 1292.61 409.782 1296.66 404.006Z" fill="#B5B5B5"/>
<path d="M1259.24 283.459L1226.6 283.48L1225.98 315.108L1258.62 315.086L1259.24 283.459Z" fill="#FEFEFE"/>
<path d="M1242.82 290.56C1244.14 290.56 1245.23 289.521 1245.25 288.241C1245.28 286.961 1244.23 285.924 1242.91 285.924C1241.59 285.925 1240.49 286.964 1240.47 288.244C1240.44 289.524 1241.49 290.561 1242.82 290.56Z" fill="#CE8DCB"/>
<path d="M1106.35 242.048C1106.33 242.976 1105.54 243.723 1104.59 243.724C1103.63 243.724 1102.87 242.978 1102.89 242.051C1102.91 241.123 1103.7 240.376 1104.65 240.375C1105.58 240.375 1106.36 241.121 1106.35 242.048Z" fill="#CE8DCB"/>
<path d="M1223.52 158.117L1198.3 158.134L1197.26 210.951L1222.49 210.934L1223.52 158.117Z" fill="#11194E"/>
<path d="M1240.78 186.653L1240.21 216.101L1244.07 221.859L1244.54 233.92L1264.98 233.907L1265.91 186.637L1240.78 186.653Z" fill="white"/>
<path d="M1308.42 203.962L1283.29 203.978L1282.7 234.018L1307.83 234.001L1308.42 203.962Z" fill="white"/>
<path d="M856.41 375.131C856.41 375.131 861.731 367.012 863.884 363.094C866.063 359.176 867.586 354.77 868.466 353.352C869.344 351.96 870.757 350.491 872.98 351.108C875.202 351.75 875.511 353.605 875.331 356.027C875.15 358.449 872.698 364.067 872.878 365.716C873.059 367.365 873.673 369.941 877.177 369.011C880.681 368.081 884.872 364.678 886.767 363.027C888.662 361.377 896.17 354.364 896.17 354.364C896.17 354.364 898.711 352.327 901.526 353.974C904.314 355.622 903.133 358.817 903.133 358.817C903.133 358.817 905.312 358.944 906.457 360.283C907.628 361.622 908.085 364.07 907.087 364.766C907.087 364.766 907.015 365.719 908.249 366.543C909.483 367.367 909.575 369.479 908.688 371.258C907.802 373.036 901.404 380.434 895.434 384.973C889.491 389.511 879.821 395.546 875.834 396.657C875.834 396.657 870.193 388.571 867.048 384.811C863.903 381.052 856.41 375.131 856.41 375.131Z" fill="#FEFEFE"/>
<path d="M825.557 284.995L825.178 289.423L821.791 285.024L825.557 284.995Z" fill="#1A1A1A"/>
<path d="M828.579 271.454C828.579 271.454 835.098 266.858 836.964 261.543C838.803 256.202 839.029 252.849 839.029 252.849C839.029 252.849 842.986 259.166 852.608 259.598C862.229 260.03 861.427 258.767 861.427 258.767L861.416 260.676L863.21 261.706C863.21 261.706 864.158 256.908 863.118 252.859C862.077 248.809 858.94 245.561 853.788 243.011C848.637 240.461 842.125 240.594 840.889 241.033C839.654 241.447 833.809 242.947 832.798 244.186L831.932 244.805C831.932 244.805 824.935 245.197 821.837 248.088C818.739 250.953 816.611 253.354 815.931 258.1C815.224 262.821 815.169 268.316 816.642 270.739C816.642 270.739 818.654 268.829 822.202 268.827C825.752 268.721 828.579 271.454 828.579 271.454Z" fill="#DBD8FF"/>
<path d="M842.435 285.719C842.435 285.719 845.71 287.109 846.629 289.144C847.548 291.18 846.924 293.113 846.924 293.113C846.924 293.113 849.892 293.859 852.552 292.697C855.212 291.51 855.418 289.164 854.586 288.159C853.753 287.155 851.554 287.929 850.328 287.982C849.101 288.06 847.584 287.984 847.154 286.85C846.723 285.742 845.703 283.397 843.941 283.604C842.205 283.837 842.435 285.719 842.435 285.719Z" fill="#1A1A1A"/>
<path d="M840.146 344.061L846.22 352.517L844.643 367.559L846.934 376.403L852.4 373.031L855.769 375.06L859.826 368.655L858.827 360.736L854.046 351.792L855.053 341.866L847.856 331.817L840.146 344.061Z" fill="#DBD8FF"/>
<path d="M1353.85 323.833L1354.31 325.74C1354.31 325.74 1351.37 342.47 1356.14 342.596C1360.93 342.722 1369.42 333.54 1370.95 331.915C1372.47 330.29 1376.84 325.132 1376.84 325.132L1376.2 323.509L1380.27 323.66C1380.27 323.66 1380.38 332.012 1377.63 340.185C1374.89 348.358 1371.95 354.159 1367.21 354.24C1362.46 354.294 1359.35 351.177 1358.19 349.4C1357.03 347.622 1356.46 343.833 1356.46 343.833C1356.46 343.833 1348.09 351.107 1344.39 350.801C1340.69 350.494 1337.99 347.325 1340.47 341.627C1342.95 335.929 1350.56 324.505 1350.56 324.505L1353.85 323.833Z" fill="#A93B9E"/>
<path d="M896.285 216.056L955.391 216.017L956.518 158.737C956.518 158.737 932.285 157.156 913.272 176.64C894.285 196.123 896.285 216.056 896.285 216.056Z" fill="#11194E"/>
<path d="M973.577 172.637L972.437 230.587L912.64 230.626C912.01 262.64 938.262 288.558 971.296 288.537C1004.33 288.515 1031.6 262.561 1032.23 230.547C1032.86 198.559 1006.58 172.615 973.577 172.637Z" fill="#A93B9E"/>
<path d="M1108.5 501.41L1097.41 494.99L1087.92 494.219L1060.43 505.925L1094.37 509.272L1108.5 501.41Z" fill="#CE8DCB"/>
<path d="M853.855 243.043C851.466 241.86 848.8 241.27 846.499 240.988C846.392 241.04 862.821 249.524 857.637 259.669C860.741 259.564 861.36 259.126 861.444 258.894L861.436 260.645L863.218 261.673C863.218 261.673 864.161 256.885 863.127 252.844C862.092 248.855 858.974 245.588 853.855 243.043Z" fill="white"/>
<path d="M839.018 252.465C839.018 252.465 832.377 267.598 826.009 268.838L828.978 271.126C830.32 270.096 835.341 266.078 836.938 261.498C838.76 256.17 838.985 252.825 838.985 252.825C838.985 252.825 839.035 252.928 839.165 253.083L839.018 252.465Z" fill="white"/>
<path d="M1160.8 269.404C1160.8 269.404 1161.77 282.142 1164.77 285.768C1167.77 289.395 1169.78 291.89 1172.66 292.068C1162.57 285.667 1163.96 264.846 1164.2 262.221C1159.66 262.585 1155.62 263.514 1153.79 266.5C1151.22 270.697 1148.81 274.713 1151.73 281.299C1151.75 281.325 1152.44 273.166 1160.8 269.404Z" fill="white"/>
<path d="M1169.38 330.241C1168.27 329.933 1167.19 328.698 1166.6 327.824C1165.87 326.795 1165.42 325.586 1165.15 324.377C1164.57 321.649 1164.69 318.33 1165.99 315.755C1166.67 314.391 1167.76 313.181 1169.04 312.305C1170.25 311.481 1171.61 310.914 1172.89 310.244C1173.91 309.729 1174.87 309.111 1175.63 308.261C1176.36 307.463 1177.22 306.69 1177.61 305.66C1177.61 305.66 1177.09 305.301 1176.26 304.709C1175.41 304.504 1175.02 304.221 1175.02 304.221C1175.02 304.221 1174.67 307.515 1170.9 308.032C1167.13 308.549 1159.91 312.388 1158.58 316.841C1157.39 320.959 1158.88 327.417 1169.38 330.241Z" fill="white"/>
<path d="M845.291 336.306L850.266 342.422L849.764 352.088L859.25 369.383L859.307 362.416L854.054 351.802L855.605 341.878L847.85 332.294L845.291 336.306Z" fill="white"/>
<path d="M1082.31 301.088C1082.29 301.088 1063.48 300.055 1063.48 300.055C1063.12 300.03 1062.86 299.719 1062.9 299.33C1062.96 298.966 1063.28 298.68 1063.64 298.68C1063.67 298.68 1081.77 299.662 1081.77 299.662L1082.7 293.511L1056 292.05C1055.64 292.025 1055.38 291.714 1055.42 291.325C1055.48 290.961 1055.79 290.675 1056.16 290.675C1056.18 290.675 1083.59 292.186 1083.59 292.186C1083.95 292.211 1084.21 292.522 1084.17 292.911L1083.03 300.412C1083.02 300.801 1082.68 301.087 1082.31 301.088Z" fill="black"/>
<path d="M1086.44 301.306C1086.41 301.306 1083.08 301.105 1083.08 301.105C1082.76 301.08 1082.52 300.772 1082.56 300.386C1082.61 300.025 1082.87 299.716 1083.27 299.741L1085.97 299.891L1086.79 293.79L1084.09 293.615C1083.76 293.589 1083.53 293.281 1083.56 292.895C1083.62 292.534 1083.9 292.251 1084.23 292.25C1084.25 292.25 1087.59 292.451 1087.59 292.451C1087.91 292.476 1088.15 292.784 1088.11 293.17L1087.11 300.61C1087.08 301.022 1086.77 301.305 1086.44 301.306Z" fill="black"/>
<path d="M1040.27 298.715C1040.17 298.716 1040.07 298.69 1039.98 298.639L1032.61 294.447C1032.4 294.318 1032.29 294.086 1032.32 293.803C1032.37 293.545 1032.54 293.312 1032.8 293.209L1042.08 289.583C1042.44 289.479 1042.8 289.633 1042.9 289.968C1042.99 290.303 1042.8 290.716 1042.44 290.846L1034.53 293.928L1040.69 297.425C1041 297.605 1041.08 298.018 1040.88 298.328C1040.73 298.586 1040.49 298.715 1040.27 298.715Z" fill="black"/>
<path d="M1058.21 308.623C1058.08 308.623 1057.96 308.597 1057.86 308.52C1045.87 300.362 1043.54 294.279 1043.24 291.391C1043.07 289.715 1043.46 288.27 1044.37 287.185C1047.35 283.673 1052.39 287.276 1052.62 287.431C1052.84 287.662 1062.56 299.899 1068.34 301.902C1068.69 302.03 1068.85 302.417 1068.7 302.752C1068.56 303.114 1068.18 303.295 1067.83 303.166C1061.9 301.112 1052.63 289.597 1051.71 288.489C1051.16 288.129 1047.37 285.659 1045.36 288.009C1044.7 288.758 1044.43 289.867 1044.57 291.157C1044.78 293.323 1046.62 299.226 1058.64 307.384C1058.94 307.59 1058.99 308.002 1058.8 308.312C1058.66 308.519 1058.44 308.622 1058.21 308.623Z" fill="black"/>
<path d="M1052.67 315.457C1052.52 315.457 1052.38 315.406 1052.26 315.303C1051.79 314.866 1040.75 304.77 1040.81 295.97C1040.81 293.475 1041.74 291.312 1043.52 289.534C1043.78 289.276 1044.2 289.275 1044.44 289.532C1044.67 289.789 1044.65 290.227 1044.39 290.484C1042.87 292.005 1042.14 293.781 1042.12 295.917C1042.07 304.125 1053.06 314.17 1053.15 314.273C1053.41 314.504 1053.44 314.941 1053.18 315.225C1053.05 315.379 1052.87 315.457 1052.67 315.457Z" fill="black"/>
<path d="M1071.2 292.975C1071.02 292.975 1070.84 292.898 1070.71 292.768C1070.69 292.716 1066.98 288.563 1062.92 287.712C1058.79 286.834 1050.99 288.094 1050.91 288.12C1050.53 288.224 1050.18 287.939 1050.14 287.575C1050.11 287.211 1050.37 286.847 1050.74 286.794C1051.07 286.742 1058.89 285.457 1063.29 286.412C1067.76 287.367 1071.62 291.701 1071.77 291.883C1072.02 292.168 1071.97 292.584 1071.69 292.845C1071.52 292.897 1071.36 292.975 1071.2 292.975Z" fill="black"/>
<path d="M1080.48 324.993C1080.22 324.993 1080 324.814 1079.92 324.531C1079.87 324.274 1078.4 317.953 1078.83 313.686C1079.55 306.72 1076.51 300.401 1076.49 300.35C1076.35 300.042 1076.46 299.63 1076.74 299.424C1077.03 299.218 1077.39 299.321 1077.56 299.654C1077.68 299.937 1080.78 306.384 1080.04 313.762C1079.65 317.772 1081.1 324.041 1081.11 324.118C1081.19 324.478 1081.01 324.838 1080.68 324.967C1080.59 324.993 1080.55 324.993 1080.48 324.993Z" fill="black"/>
<path d="M1053.8 328.222C1053.55 328.222 1053.32 328.068 1053.23 327.811C1052.34 325.42 1050.48 320.56 1049.65 319.326C1049.54 319.172 1049.35 318.915 1049.1 318.555C1046.84 315.471 1039.98 306.091 1042.16 299.81C1042.27 299.45 1042.65 299.269 1042.99 299.371C1043.33 299.474 1043.51 299.859 1043.37 300.22C1041.45 305.806 1047.99 314.775 1050.13 317.705C1050.38 318.064 1050.59 318.347 1050.7 318.501C1051.8 320.146 1054.31 326.96 1054.42 327.243C1054.55 327.578 1054.38 327.989 1054.03 328.119C1053.97 328.222 1053.9 328.222 1053.8 328.222Z" fill="black"/>
<path d="M1348.4 379.761C1348.25 379.761 1348.11 379.71 1347.99 379.607C1347.74 379.375 1347.75 378.937 1348 378.653L1360.4 364.843L1356.25 360.907L1342.62 376.085C1342.37 376.369 1341.94 376.395 1341.69 376.163C1341.44 375.932 1341.46 375.494 1341.7 375.21L1355.81 359.49C1356.08 359.206 1356.48 359.179 1356.73 359.411L1361.79 364.223C1362.05 364.454 1362.03 364.892 1361.78 365.176L1348.92 379.502C1348.78 379.683 1348.57 379.761 1348.4 379.761Z" fill="black"/>
<path d="M1361.22 365.5C1361.07 365.5 1360.92 365.449 1360.81 365.346C1360.55 365.115 1360.57 364.676 1360.82 364.392L1362.86 362.12L1358.69 358.183L1356.65 360.455C1356.4 360.739 1355.98 360.765 1355.72 360.534C1355.47 360.302 1355.49 359.864 1355.73 359.58L1358.25 356.791C1358.5 356.507 1358.92 356.481 1359.18 356.712L1364.26 361.525C1364.51 361.757 1364.5 362.195 1364.25 362.479L1361.73 365.267C1361.6 365.422 1361.39 365.5 1361.22 365.5Z" fill="black"/>
<path d="M1346.82 390.466C1346.51 390.466 1346.25 390.259 1346.19 389.949C1346.11 389.586 1346.36 389.223 1346.74 389.119C1348.87 388.597 1350.64 388.051 1353.06 387.218C1353.41 387.088 1353.79 387.269 1353.91 387.631C1354.02 387.994 1353.81 388.383 1353.43 388.513C1350.99 389.371 1349.14 389.918 1346.98 390.466C1346.95 390.466 1346.9 390.466 1346.82 390.466Z" fill="black"/>
<path d="M1343.52 381.028C1343.18 381.028 1342.9 380.795 1342.86 380.458C1342.83 380.095 1343.09 379.732 1343.49 379.679C1347.22 379.077 1351.84 378.188 1354.46 376.498C1354.79 376.29 1355.21 376.367 1355.4 376.678C1355.6 376.989 1355.5 377.404 1355.17 377.612C1352.32 379.458 1347.51 380.399 1343.62 381.028C1343.6 381.028 1343.55 381.028 1343.52 381.028Z" fill="black"/>
<path d="M1349.32 397.56C1348.98 397.561 1348.67 397.301 1348.67 396.963C1348.66 396.599 1348.94 396.26 1349.32 396.208C1353.26 395.812 1355.76 395.21 1355.79 395.21C1356.16 395.105 1356.52 395.339 1356.61 395.703C1356.69 396.067 1356.43 396.431 1356.06 396.536C1355.95 396.562 1353.45 397.164 1349.4 397.56C1349.38 397.56 1349.35 397.56 1349.32 397.56Z" fill="black"/>
<path d="M1340.31 371.864C1340.07 371.865 1339.87 371.761 1339.75 371.554C1339.58 371.243 1339.68 370.829 1340.04 370.621C1343.66 368.516 1347.65 368.225 1347.84 368.225C1348.26 368.198 1348.54 368.483 1348.54 368.846C1348.55 369.209 1348.24 369.546 1347.87 369.572C1347.82 369.572 1344.01 369.863 1340.71 371.786C1340.55 371.838 1340.44 371.864 1340.31 371.864Z" fill="black"/>
<path d="M1385.74 395.026C1385.54 395.027 1385.36 394.949 1385.21 394.769C1385.09 394.615 1373.54 378.639 1370.56 376.013C1365.46 371.481 1358.19 370.666 1358.12 370.666C1357.76 370.641 1357.49 370.306 1357.56 369.919C1357.61 369.558 1357.96 369.325 1358.34 369.325C1358.65 369.35 1366.1 370.19 1371.5 374.98C1374.58 377.709 1385.84 393.272 1386.32 393.942C1386.54 394.225 1386.46 394.664 1386.14 394.897C1386.03 394.974 1385.9 395.026 1385.74 395.026Z" fill="black"/>
<path d="M1366.79 412.752C1366.56 412.752 1366.33 412.649 1366.24 412.417C1363.47 407.384 1360.35 403.076 1359.41 403.052C1359.2 403.052 1358.73 403.13 1358.2 403.234C1356.81 403.469 1354.49 403.911 1351.92 403.786C1351.55 403.761 1351.26 403.451 1351.3 403.09C1351.35 402.728 1351.7 402.443 1352.04 402.443C1354.46 402.543 1356.62 402.152 1358.04 401.917C1358.7 401.787 1359.17 401.709 1359.51 401.708C1361.7 401.705 1365.79 408.724 1367.45 411.743C1367.61 412.053 1367.49 412.466 1367.16 412.674C1367.05 412.725 1366.92 412.751 1366.79 412.752Z" fill="black"/>
<path d="M1148.21 309.652C1147.85 309.653 1147.49 309.601 1147.09 309.499C1146.73 309.396 1146.55 309.036 1146.67 308.675C1146.79 308.313 1147.17 308.081 1147.52 308.209C1148.1 308.363 1148.44 308.363 1149.22 308.233C1150.64 308.024 1152.01 307.042 1152.83 305.623C1153.37 304.694 1153.49 303.921 1153.35 303.586C1153.24 303.328 1153.09 303.174 1152.87 303.097C1152.61 303.02 1152.33 303.046 1152.01 303.175C1151.64 303.356 1151.37 303.692 1151.01 304.053C1150.66 304.466 1150.27 304.931 1149.66 305.241C1148.37 305.913 1147.12 305.168 1146.72 304.91C1146.42 304.73 1146.32 304.318 1146.54 303.983C1146.77 303.647 1147.16 303.543 1147.48 303.749C1148.18 304.161 1148.69 304.263 1149.14 304.056C1149.45 303.875 1149.73 303.565 1150.03 303.204C1150.42 302.739 1150.86 302.249 1151.52 301.938C1152.15 301.654 1152.82 301.601 1153.4 301.807C1153.95 302.012 1154.37 302.424 1154.6 302.991C1154.94 303.79 1154.69 305.002 1153.98 306.214C1152.93 307.995 1151.19 309.235 1149.33 309.521C1148.91 309.599 1148.55 309.651 1148.21 309.652Z" fill="black"/>
<path d="M785.433 462.026C770.22 462.044 753.364 453.101 750.43 438.012C746.625 418.39 758.357 387.958 762.044 379.093C769.303 361.647 772.937 355.178 780.874 343.398C793.481 324.658 805.491 319.467 819.699 317.415C820.067 317.337 820.424 317.62 820.464 317.981C820.505 318.341 820.232 318.702 819.864 318.754C805.657 320.806 794.386 325.765 782.027 344.118C774.145 355.821 770.564 362.238 763.335 379.581C759.678 388.343 748.06 418.465 751.799 437.727C754.91 453.769 774.569 462.528 790.27 460.372C819.284 456.37 870.432 405.08 874.731 400.696C874.28 399.28 872.236 393.822 866.375 386.772C858.377 377.097 853.322 374.219 852.087 373.602C847.635 376.286 797.768 406.635 780.001 432.129C779.782 432.439 779.361 432.542 779.054 432.311C778.747 432.105 778.682 431.693 778.875 431.384C797.548 404.575 851.179 372.573 851.713 372.237C851.899 372.134 852.109 372.108 852.316 372.185C852.549 372.262 857.942 374.419 867.423 385.869C874.39 394.283 876.074 400.386 876.144 400.643C876.215 400.875 876.129 401.107 875.966 401.287C873.748 403.582 821.027 457.424 790.411 461.659C788.757 461.893 787.106 462.024 785.433 462.026Z" fill="black"/>
<path d="M848.473 293.994C847.516 293.995 846.6 293.816 845.701 293.456C843.662 292.608 842.157 290.623 841.729 288.173C841.428 286.522 841.693 285.024 842.429 284.146C843.108 283.345 843.978 282.93 844.899 283.058C846.021 283.185 846.999 284.061 847.484 285.35C848.087 287.001 848.257 287.078 848.671 287.232C849.083 287.412 849.252 287.489 850.98 286.79C852.341 286.246 853.692 286.347 854.535 287.042C855.214 287.608 855.488 288.46 855.317 289.492C855.108 290.654 854.031 291.946 852.511 292.851C851.231 293.602 849.834 293.991 848.473 293.994ZM844.5 284.375C844.122 284.375 843.75 284.582 843.412 284.97C843.046 285.384 842.799 286.416 843.048 287.809C843.411 289.873 844.622 291.497 846.297 292.191C848.843 293.27 851.058 292.209 851.885 291.717C853.166 290.941 853.862 289.959 853.965 289.391C854.066 288.849 853.953 288.436 853.601 288.153C853.084 287.741 852.205 287.717 851.314 288.079C849.299 288.883 848.823 288.858 848.047 288.524C847.295 288.215 846.92 287.906 846.219 285.946C845.895 285.095 845.272 284.477 844.624 284.4C844.576 284.375 844.525 284.375 844.5 284.375Z" fill="black"/>
<path d="M846.828 293.737C846.327 293.634 846.118 293.274 846.24 292.888C847.749 287.915 842.129 286.352 841.904 286.301C841.554 286.198 841.371 285.838 841.466 285.477C841.587 285.117 841.953 284.91 842.304 284.987C844.778 285.653 849.026 288.222 847.515 293.221C847.397 293.53 847.107 293.736 846.828 293.737Z" fill="black"/>
<path d="M794.857 415.286C794.758 415.287 794.659 415.261 794.561 415.21C794.243 415.03 794.13 414.645 794.315 414.31C807.084 389.979 811.016 358.333 811.05 358.025C811.086 357.665 811.393 357.407 811.766 357.407C812.114 357.432 812.378 357.766 812.342 358.126C812.307 358.434 808.341 390.364 795.442 414.9C795.334 415.157 795.106 415.286 794.857 415.286Z" fill="black"/>
<path d="M847.283 300.334C845.831 300.336 844.276 300.261 842.564 300.134C840.063 299.956 837.885 299.546 835.874 298.903C835.508 298.801 835.335 298.414 835.453 298.053C835.597 297.691 835.972 297.51 836.338 297.613C838.245 298.23 840.318 298.614 842.714 298.792C850.481 299.376 855.364 298.596 858.156 296.348C859.811 294.979 860.773 293.017 861.073 290.281C861.265 288.475 861.524 284.579 861.661 281.199C861.673 280.838 862 280.528 862.369 280.527C862.765 280.527 863.046 280.836 863.034 281.197C862.896 284.603 862.635 288.551 862.443 290.383C862.104 293.479 860.973 295.777 859.02 297.379C856.58 299.343 852.773 300.328 847.283 300.334Z" fill="black"/>
<path d="M861.64 261.568C861.283 261.568 861.011 261.286 860.997 260.926L860.978 259.1C860.965 258.714 861.255 258.405 861.638 258.405C862.02 258.404 862.318 258.687 862.306 259.047L862.324 260.898C862.338 261.258 862.047 261.593 861.664 261.594C861.665 261.568 861.665 261.568 861.64 261.568Z" fill="black"/>
<path d="M825.164 310.326C824.889 310.326 824.66 310.018 824.668 309.659L825.229 284.413C825.237 284.053 825.48 283.745 825.755 283.745C826.03 283.744 826.259 284.052 826.251 284.412L825.689 309.658C825.681 310.043 825.439 310.326 825.164 310.326Z" fill="black"/>
<path d="M822.185 285.697C820.245 285.699 818.299 285.057 816.715 283.797C812.931 280.812 812.43 275.273 815.596 271.43C817.125 269.573 819.286 268.411 821.682 268.125C824.051 267.838 826.389 268.48 828.229 269.946C829.431 270.898 830.361 272.134 830.891 273.55C831.011 273.885 830.841 274.298 830.496 274.427C830.124 274.582 829.736 274.402 829.616 274.067C829.156 272.882 828.379 271.801 827.356 271.004C825.797 269.769 823.823 269.204 821.822 269.464C819.795 269.699 817.979 270.706 816.67 272.279C813.996 275.503 814.393 280.218 817.614 282.739C820.349 284.9 824.205 284.844 827.055 282.676C827.351 282.444 827.795 282.495 828.022 282.778C828.248 283.061 828.182 283.499 827.886 283.732C826.165 285.048 824.151 285.694 822.185 285.697Z" fill="black"/>
<path d="M853.511 310.621C853.195 310.621 852.935 310.365 852.897 310.031L852.047 299.367C852.01 299.008 852.287 298.673 852.628 298.622C853.019 298.57 853.277 298.852 853.315 299.212L854.164 309.875C854.202 310.235 853.925 310.569 853.584 310.621C853.559 310.621 853.535 310.621 853.511 310.621Z" fill="black"/>
<path d="M828.663 272.135C828.451 272.135 828.242 272.032 828.116 271.852C827.914 271.542 828.007 271.129 828.306 270.896C838.002 264.375 838.618 252.906 838.621 252.803C838.63 252.519 838.824 252.26 839.119 252.157C839.387 252.053 839.702 252.156 839.879 252.388C840.158 252.775 847.196 261.833 861.322 258.303C861.696 258.199 862.059 258.431 862.153 258.793C862.247 259.154 861.997 259.516 861.623 259.62C849.793 262.579 842.457 256.957 839.84 254.403C839.326 257.942 837.243 266.494 829.091 272.005C828.955 272.109 828.795 272.135 828.663 272.135Z" fill="black"/>
<path d="M819.809 281.835C819.575 281.835 819.318 281.707 819.222 281.475C819.05 281.141 819.193 280.754 819.537 280.574L825.094 277.735L820.002 272.644C819.75 272.386 819.738 271.949 820.033 271.691C820.302 271.433 820.745 271.407 820.996 271.69L826.744 277.424C826.895 277.578 826.966 277.784 826.934 277.99C826.901 278.196 826.764 278.402 826.553 278.48L820.15 281.757C820.043 281.835 819.913 281.835 819.809 281.835Z" fill="black"/>
<path d="M835.976 249.443C835.793 249.443 835.586 249.366 835.46 249.211L832.138 245.197C831.911 244.914 831.951 244.502 832.247 244.244C832.543 244.012 832.96 244.037 833.213 244.32L836.535 248.334C836.762 248.617 836.722 249.03 836.426 249.288C836.292 249.391 836.133 249.442 835.976 249.443Z" fill="black"/>
<path d="M816.29 271.053C815.999 271.054 815.741 270.873 815.644 270.589C815.5 270.125 812.346 259 817.895 251.169C820.781 247.111 825.491 244.704 831.89 244.051C833.248 242.99 841.723 237.144 854.359 242.397C865.038 246.825 864.766 256.715 863.633 262.217C863.568 262.578 863.241 262.889 862.821 262.76C862.453 262.709 862.2 262.348 862.265 261.986C863.528 255.736 863.084 247.499 853.763 243.637C841.048 238.359 832.893 244.928 832.566 245.212C832.457 245.315 832.323 245.367 832.164 245.367C826.085 245.943 821.673 248.143 818.983 251.89C813.822 259.178 816.906 270.046 816.929 270.149C817.023 270.51 816.826 270.872 816.451 271.002C816.423 271.053 816.343 271.053 816.29 271.053Z" fill="black"/>
<path d="M825.383 290.299C825.253 290.299 825.097 290.248 824.969 290.171C822.696 288.422 820.907 285.487 820.831 285.384C820.632 285.075 820.75 284.663 821.071 284.456C821.391 284.276 821.807 284.352 822.007 284.661C822.032 284.687 823.747 287.493 825.816 289.088C826.096 289.319 826.161 289.731 825.915 290.041C825.779 290.221 825.593 290.299 825.383 290.299Z" fill="black"/>
<path d="M854.672 284.343C854.418 284.344 854.168 284.19 854.075 283.907C853.959 283.573 854.124 283.187 854.485 283.032C854.717 282.929 854.948 282.851 855.205 282.774C855.72 282.593 856.209 282.413 856.675 282.155C857.323 281.794 857.772 281.279 857.889 280.791C857.978 280.379 857.891 279.916 857.649 279.531C857.26 278.94 856.587 278.503 855.701 278.35C855.549 278.325 854.457 278.249 854.203 278.249C854.1 278.275 853.999 278.249 853.924 278.224C853.672 278.147 853.501 277.916 853.483 277.658C853.484 277.633 852.889 268.247 852.889 268.247L854.217 268.117L854.78 276.885C855.237 276.911 855.719 276.987 855.998 277.013C857.238 277.217 858.236 277.859 858.817 278.784C859.254 279.477 859.38 280.3 859.203 281.072C858.997 281.972 858.31 282.77 857.325 283.337C856.781 283.646 856.215 283.853 855.648 284.059C855.417 284.137 855.185 284.214 854.979 284.317C854.825 284.343 854.749 284.343 854.672 284.343Z" fill="black"/>
<path d="M1161.5 284.83C1161.31 284.83 1161.13 284.752 1161 284.623C1158.64 282.087 1155.71 283.619 1155.6 283.697C1155.25 283.879 1154.83 283.776 1154.65 283.439C1154.48 283.128 1154.6 282.714 1154.95 282.506C1156.33 281.753 1159.58 280.998 1162.07 283.663C1162.33 283.948 1162.29 284.362 1162.01 284.622C1161.85 284.777 1161.69 284.829 1161.5 284.83Z" fill="black"/>
<path d="M1156.81 288.074C1156.26 287.998 1155.89 288.229 1155.7 290.157C1155.47 292.317 1156.04 292.702 1156.51 292.676C1157.01 292.65 1157.52 292.007 1157.52 290.465C1157.55 288.896 1157.54 288.177 1156.81 288.074Z" fill="black"/>
<path d="M1178.17 305.743C1176.47 305.745 1174.89 305.232 1173.56 304.306C1173.25 304.1 1173.18 303.662 1173.43 303.353C1173.65 303.043 1174.1 302.965 1174.38 303.197C1175.48 303.968 1176.8 304.405 1178.22 304.403C1181.96 304.399 1185.1 301.432 1185.22 297.748C1185.28 295.97 1184.65 294.296 1183.41 293.035C1182.16 291.774 1180.48 291.081 1178.68 291.083C1176.32 291.086 1174.13 292.248 1172.81 294.207C1172.59 294.517 1172.17 294.62 1171.86 294.415C1171.55 294.209 1171.46 293.797 1171.68 293.487C1173.25 291.141 1175.89 289.747 1178.69 289.743C1183.22 289.764 1186.72 293.341 1186.58 297.772C1186.41 302.152 1182.63 305.738 1178.17 305.743Z" fill="black"/>
<path d="M1180.11 301.715C1179.98 301.715 1179.85 301.69 1179.75 301.613L1174.75 298.297C1174.57 298.169 1174.48 297.989 1174.46 297.757C1174.47 297.525 1174.58 297.319 1174.76 297.19L1180.02 293.424C1180.34 293.218 1180.75 293.269 1180.98 293.552C1181.2 293.861 1181.11 294.273 1180.82 294.505L1176.36 297.703L1180.57 300.504C1180.88 300.71 1180.94 301.122 1180.72 301.431C1180.53 301.612 1180.32 301.715 1180.11 301.715Z" fill="black"/>
<path d="M1161.59 330.177C1161.18 330.152 1160.91 329.843 1160.95 329.458L1161.22 326.629C1161.25 326.243 1161.51 326.012 1161.94 325.986C1162.3 326.011 1162.56 326.319 1162.53 326.705L1162.26 329.533C1162.23 329.893 1161.91 330.176 1161.59 330.177Z" fill="black"/>
<path d="M1127.92 485.103C1127.64 485.103 1127.4 484.821 1127.41 484.436C1127.59 471.492 1130.48 425.209 1130.51 424.747C1130.54 424.387 1130.78 424.13 1131.07 424.104C1131.35 424.129 1131.59 424.437 1131.56 424.797C1131.53 425.259 1128.64 471.516 1128.46 484.383C1128.47 484.794 1128.22 485.103 1127.92 485.103C1127.94 485.103 1127.92 485.103 1127.92 485.103Z" fill="black"/>
<path d="M959.489 222.894L901.746 222.98C901.387 222.981 901.096 222.672 901.115 222.311C901.135 221.95 901.46 221.64 901.819 221.639L958.894 221.554L962.015 164.273C962.035 163.912 962.36 163.602 962.719 163.601C963.079 163.601 963.37 163.91 963.35 164.271L960.191 222.248C960.172 222.609 959.848 222.893 959.489 222.894Z" fill="#151515"/>
<path d="M959.008 280.866C926.812 280.914 902.037 254.633 903.804 222.306C905.571 189.979 933.223 163.619 965.418 163.571C997.614 163.523 1022.39 189.778 1020.62 222.131C1019.72 238.552 1011.93 254.365 999.23 265.468C998.934 265.727 998.524 265.702 998.283 265.418C998.042 265.135 998.09 264.723 998.387 264.464C1010.79 253.62 1018.41 238.168 1019.29 222.133C1021.01 190.528 996.822 164.864 965.345 164.911C933.868 164.958 906.866 190.698 905.139 222.304C903.412 253.909 927.604 279.572 959.081 279.525C962.393 279.52 965.72 279.232 968.961 278.66C969.324 278.582 969.67 278.839 969.701 279.2C969.758 279.561 969.482 279.922 969.12 279.974C965.801 280.572 962.397 280.861 959.008 280.866Z" fill="#151515"/>
<path d="M872.866 324.119C872.733 324.119 872.601 324.093 872.497 324.016C867.915 321.097 863.873 319.523 859.377 318.856C859.006 318.805 858.752 318.443 858.817 318.08C858.882 317.718 859.236 317.484 859.633 317.51C864.342 318.203 868.54 319.854 873.279 322.876C873.591 323.083 873.683 323.497 873.461 323.808C873.322 323.989 873.105 324.119 872.866 324.119Z" fill="black"/>
<path d="M900.562 484.746C900.298 484.747 900.063 484.567 899.975 484.285C897.623 476.039 896.236 464.35 895.828 449.576C895.815 449.216 896.089 448.882 896.426 448.855C896.811 448.829 897.067 449.112 897.079 449.497C897.467 464.143 898.858 475.704 901.165 483.846C901.274 484.206 901.072 484.566 900.756 484.695C900.706 484.746 900.634 484.746 900.562 484.746Z" fill="black"/>
<path d="M780.026 484.477C779.734 484.478 779.51 484.221 779.498 483.862C779.125 472.535 780.059 460.669 780.062 460.54C780.092 460.181 780.371 459.872 780.661 459.923C780.953 459.949 781.175 460.257 781.145 460.642C781.142 460.745 780.21 472.534 780.585 483.758C780.598 484.117 780.36 484.452 780.067 484.477C780.047 484.477 780.047 484.477 780.026 484.477Z" fill="black"/>
<path d="M860.191 282.487C859.442 282.488 858.827 282.36 858.294 282.078C857.964 281.898 857.849 281.486 858.039 281.177C858.231 280.843 858.648 280.714 858.952 280.893C859.332 281.099 859.743 281.15 860.31 281.175C863.047 281.12 865.411 276.614 865.476 271.365C865.542 266.09 863.256 261.719 860.546 261.748C859.28 261.775 858.036 262.754 857.051 264.505C856.01 266.385 855.414 268.881 855.38 271.557C855.356 273.925 855.707 275.854 856.408 277.32C856.578 277.654 856.436 278.066 856.095 278.221C855.754 278.401 855.371 278.273 855.201 277.939C854.376 276.293 853.98 274.158 854.011 271.585C854.052 268.703 854.708 265.949 855.859 263.863C857.091 261.649 858.756 260.412 860.538 260.384C864.177 260.38 866.888 265.163 866.82 271.312C866.75 277.513 863.883 282.431 860.267 282.513C860.268 282.487 860.217 282.487 860.191 282.487Z" fill="black"/>
<path d="M843.207 282.115C839.646 282.119 836.935 277.337 837.003 271.187C837.044 268.305 837.699 265.577 838.849 263.492C840.081 261.277 841.747 260.04 843.528 260.012C844.715 260.011 845.809 260.499 846.734 261.424C848.66 263.326 849.833 266.978 849.784 270.94C849.743 273.822 849.087 276.576 847.937 278.662C846.704 280.876 845.039 282.113 843.258 282.141C843.259 282.115 843.233 282.115 843.207 282.115ZM843.588 261.35C842.246 261.378 841.027 262.357 840.042 264.108C839.002 265.987 838.405 268.51 838.371 271.16C838.307 276.383 840.54 280.78 843.276 280.777C844.592 280.75 845.837 279.771 846.822 278.02C847.862 276.14 848.459 273.644 848.493 270.968C848.532 267.34 847.501 264.073 845.826 262.403C845.1 261.683 844.363 261.349 843.588 261.35Z" fill="black"/>
<path d="M1421.74 422.554C1421.51 422.554 1421.27 422.426 1421.15 422.22C1413.48 408.212 1394.91 392.877 1389.4 389.147C1389.09 388.942 1389.02 388.529 1389.24 388.22C1389.46 387.91 1389.88 387.833 1390.19 388.038C1395.79 391.794 1414.55 407.36 1422.35 421.548C1422.52 421.883 1422.41 422.27 1422.06 422.476C1421.95 422.502 1421.85 422.554 1421.74 422.554Z" fill="black"/>
<path d="M1309.2 450.737C1307.29 450.739 1305.38 450.535 1303.46 450.125C1289.03 447.051 1277.72 426.972 1272.94 408.404C1272.84 408.043 1273.06 407.682 1273.43 407.579C1273.8 407.475 1274.16 407.681 1274.26 408.042C1278.95 426.223 1289.91 445.891 1303.79 448.837C1306.08 449.324 1308.38 449.501 1310.63 449.37C1311 449.395 1311.33 449.627 1311.34 450.013C1311.36 450.374 1311.06 450.709 1310.67 450.735C1310.17 450.736 1309.67 450.736 1309.2 450.737Z" fill="black"/>
<path d="M1414.31 452.628C1393.54 452.653 1367.32 423.989 1359.48 414.837C1359.23 414.554 1359.27 414.142 1359.57 413.884C1359.86 413.626 1360.27 413.652 1360.52 413.935C1382.12 439.156 1403.24 453.028 1417.06 451.081C1430.98 449.108 1439.69 432.678 1440.82 418.214C1441.97 403.62 1438.02 386.021 1429.11 365.932C1427.3 361.868 1425.25 357.856 1423.26 353.972C1422.09 351.683 1420.92 349.394 1419.77 347.079C1419.43 346.359 1419.09 345.639 1418.73 344.919C1416.3 339.877 1413.8 334.656 1409.44 331.007C1399.95 323.091 1384.96 323.804 1378.93 324.48C1378.57 324.584 1378.24 324.25 1378.2 323.889C1378.16 323.529 1378.46 323.194 1378.82 323.142C1385.01 322.44 1400.44 321.727 1410.33 329.95C1414.92 333.754 1417.46 339.129 1419.94 344.299C1420.28 345.02 1420.62 345.74 1420.98 346.434C1422.1 348.749 1423.27 351.013 1424.44 353.302C1426.44 357.211 1428.51 361.249 1430.32 365.339C1439.31 385.634 1443.29 403.438 1442.12 418.238C1440.94 433.243 1431.79 450.291 1417.15 452.368C1416.29 452.549 1415.3 452.627 1414.31 452.628Z" fill="black"/>
<path d="M1312.96 342.309C1312.8 342.309 1312.67 342.258 1312.54 342.18C1312.25 341.948 1312.19 341.534 1312.44 341.223C1321.13 330.631 1333.13 326.891 1342.6 324.81C1342.92 324.758 1350.03 323.327 1353.63 323.063C1354 323.037 1354.34 323.321 1354.35 323.683C1354.37 324.072 1354.06 324.382 1353.69 324.409C1350.18 324.672 1342.93 326.103 1342.85 326.129C1333.62 328.158 1321.94 331.795 1313.5 342.05C1313.36 342.205 1313.14 342.309 1312.96 342.309Z" fill="black"/>
<path d="M1348.13 315.947C1347.63 315.947 1347.14 315.922 1346.64 315.845C1343.65 315.463 1341.44 313.714 1339.82 310.549C1338.5 307.924 1337.58 304.938 1336.92 301.205C1336.65 299.66 1336.3 297.575 1335.93 295.361C1335.06 290.057 1333.97 283.466 1333.46 281.536C1333.36 281.175 1333.59 280.814 1333.95 280.711C1334.32 280.608 1334.68 280.813 1334.77 281.174C1335.28 283.181 1336.33 289.515 1337.27 295.127C1337.64 297.341 1337.99 299.401 1338.26 300.946C1338.9 304.55 1339.77 307.407 1341.04 309.929C1342.44 312.683 1344.35 314.2 1346.84 314.532C1348.87 314.813 1350.94 314.347 1352.34 313.984C1354.55 313.415 1357.76 312.459 1359.92 311.632C1360.29 311.503 1360.68 311.683 1360.8 312.017C1360.92 312.352 1360.75 312.764 1360.38 312.893C1358 313.797 1354.71 314.754 1352.63 315.297C1351.5 315.582 1349.87 315.944 1348.13 315.947Z" fill="black"/>
<path d="M1369.54 298.874C1368.75 298.874 1367.94 298.747 1367.19 298.516C1366.83 298.413 1366.66 298.027 1366.78 297.666C1366.89 297.305 1367.29 297.125 1367.65 297.227C1368.74 297.587 1369.94 297.611 1371.1 297.352C1374.58 296.523 1376.84 293.095 1376.11 289.696C1375.77 288.048 1374.77 286.658 1373.34 285.758C1371.9 284.884 1370.18 284.603 1368.5 284.991C1367.23 285.302 1366.09 285.947 1365.19 286.875C1364.92 287.133 1364.5 287.16 1364.22 286.902C1363.94 286.645 1363.96 286.233 1364.23 285.949C1365.31 284.815 1366.7 284.04 1368.23 283.678C1370.26 283.186 1372.36 283.518 1374.11 284.598C1375.85 285.678 1377.05 287.351 1377.46 289.359C1378.32 293.48 1375.59 297.656 1371.37 298.639C1370.77 298.795 1370.14 298.873 1369.54 298.874Z" fill="black"/>
<path d="M1371.77 295.105C1371.66 295.106 1371.56 295.08 1371.46 295.029L1366.21 292.254C1366.03 292.151 1365.91 291.971 1365.86 291.765C1365.84 291.56 1365.9 291.353 1366.06 291.199L1370.74 286.482C1371.01 286.198 1371.43 286.198 1371.71 286.455C1371.96 286.712 1371.97 287.15 1371.7 287.407L1367.67 291.48L1372.15 293.843C1372.48 294.023 1372.6 294.435 1372.4 294.744C1372.24 294.976 1372 295.105 1371.77 295.105Z" fill="black"/>
<path d="M1396.32 395.048C1395.98 395.049 1395.69 394.74 1395.7 394.381C1396.28 375.158 1390.04 357.947 1389.97 357.793C1389.83 357.459 1390.01 357.048 1390.33 356.919C1390.68 356.765 1391.04 356.944 1391.15 357.278C1391.22 357.458 1397.55 374.9 1396.97 394.405C1396.96 394.739 1396.66 395.048 1396.32 395.048Z" fill="black"/>
<path d="M1349.62 305.651C1349.33 305.652 1349.04 305.652 1348.75 305.627C1348.38 305.601 1348.11 305.266 1348.17 304.906C1348.21 304.545 1348.56 304.287 1348.93 304.286C1350.52 304.439 1351.74 304.102 1352.58 303.328C1353.99 302.012 1353.9 299.796 1353.9 299.77C1353.89 299.409 1354.19 299.074 1354.56 299.047C1354.95 299.073 1355.26 299.304 1355.27 299.665C1355.27 299.768 1355.39 302.526 1353.52 304.281C1352.55 305.184 1351.24 305.649 1349.62 305.651Z" fill="black"/>
<path d="M1305.99 484.456C1305.89 484.456 1305.83 484.43 1305.73 484.405C1305.44 484.251 1305.31 483.866 1305.46 483.506C1311.23 470.449 1311.9 434.842 1311.91 434.482C1311.92 434.097 1312.18 433.814 1312.53 433.814C1312.88 433.814 1313.13 434.096 1313.12 434.481C1313.1 435.946 1312.45 470.756 1306.55 484.096C1306.43 484.327 1306.22 484.456 1305.99 484.456Z" fill="black"/>
<path d="M1281.4 410.149C1274.3 410.158 1268.68 408.49 1266.43 405.531C1264.75 403.319 1263.54 400.461 1262.72 396.754C1261.49 391.193 1261.29 385.244 1262.15 379.577C1263.09 373.266 1270.29 367.849 1270.58 367.617C1270.9 367.385 1271.32 367.436 1271.54 367.745C1271.77 368.028 1271.7 368.465 1271.38 368.698C1271.3 368.749 1264.37 374.011 1263.5 379.73C1262.68 385.139 1262.88 391.088 1264.06 396.417C1264.83 399.919 1265.97 402.622 1267.55 404.68C1269.66 407.433 1276.48 409.64 1287.02 408.443C1290.19 408.078 1295.93 405.702 1295.62 401.607C1295.53 400.397 1294.86 399.394 1293.76 398.803C1293.42 398.623 1293.33 398.211 1293.5 397.901C1293.69 397.566 1294.11 397.437 1294.42 397.643C1295.88 398.439 1296.83 399.881 1296.96 401.503C1297.35 406.37 1291.3 409.339 1287.1 409.807C1285.14 410.042 1283.23 410.147 1281.4 410.149Z" fill="black"/>
<path d="M1287.32 390.209C1282.55 390.215 1272.44 389.168 1271.15 388.653C1270.79 388.524 1270.64 388.137 1270.79 387.775C1270.93 387.439 1271.36 387.257 1271.7 387.386C1272.85 387.824 1286 389.203 1288.99 388.76L1289.49 388.682C1290.8 388.526 1292.74 388.265 1293.46 387.205C1294.47 385.705 1294.76 384 1294.25 382.527C1293.84 381.314 1292.87 380.281 1291.39 379.456C1290.19 378.812 1288.81 378.891 1287.35 378.996C1286.97 379.023 1286.6 379.023 1286.23 379.049C1271.93 379.428 1269.41 376.331 1269.16 375.97C1268.96 375.66 1269.05 375.246 1269.35 375.039C1269.67 374.832 1270.1 374.883 1270.3 375.193C1270.38 375.27 1272.88 378.058 1286.22 377.706C1286.57 377.705 1286.94 377.679 1287.28 377.653C1288.88 377.548 1290.52 377.468 1292.06 378.293C1293.86 379.273 1295.03 380.537 1295.54 382.087C1296.17 383.946 1295.8 386.091 1294.58 387.953C1293.49 389.556 1291.15 389.869 1289.61 390.051L1289.13 390.13C1288.7 390.156 1288.06 390.208 1287.32 390.209Z" fill="black"/>
<path d="M1284.77 400.54C1277.84 400.549 1270.89 399.6 1270.78 399.6C1270.41 399.549 1270.16 399.213 1270.22 398.825C1270.29 398.463 1270.64 398.203 1271.04 398.255C1271.14 398.28 1282.09 399.767 1290.08 398.956C1292.96 398.668 1295.97 396.828 1295.79 393.517C1295.68 391.888 1294.55 390.053 1292.93 388.994C1292.62 388.788 1292.56 388.374 1292.78 388.063C1293 387.752 1293.46 387.674 1293.74 387.881C1295.69 389.198 1297.03 391.369 1297.14 393.412C1297.4 397.654 1293.69 399.986 1290.14 400.327C1288.47 400.458 1286.63 400.538 1284.77 400.54Z" fill="black"/>
<path d="M1356.57 343.413C1356.23 343.413 1355.9 343.362 1355.62 343.26C1351.49 341.824 1353.29 329.06 1353.77 326.178L1351.61 315.246C1351.55 314.886 1351.79 314.525 1352.16 314.448C1352.52 314.37 1352.87 314.601 1352.94 314.961L1355.11 325.996C1354.14 332.275 1353.78 341.178 1356.1 341.973C1359.54 343.229 1369.73 332.334 1375.45 325.02L1369.47 298.424C1369.38 298.064 1369.62 297.703 1369.98 297.6C1370.37 297.497 1370.7 297.728 1370.79 298.088L1376.84 324.993C1376.89 325.199 1376.83 325.405 1376.72 325.559C1375.22 327.516 1362.65 343.406 1356.57 343.413Z" fill="black"/>
<path d="M833.579 353.245C833.299 353.219 833.075 353.091 832.985 352.859L819.052 318.169C818.962 317.937 819.003 317.653 819.193 317.447L826.472 309.19C826.608 309.035 826.843 308.957 826.996 308.957C827.176 308.957 827.351 309.034 827.472 309.163L846.786 330.471L853.339 309.639C853.43 309.382 853.644 309.201 853.903 309.149C854.163 309.071 854.412 309.2 854.553 309.431L859.492 317.438C859.563 317.541 859.607 317.67 859.599 317.825L858.002 347.307C857.987 347.59 857.794 347.848 857.507 347.952C857.221 348.03 856.92 347.927 856.779 347.695L847.058 333.021L834.185 352.909C834.046 353.115 833.809 353.244 833.579 353.245ZM820.469 317.986L833.77 351.131L846.223 331.889L826.957 310.632L820.469 317.986ZM847.795 331.68L856.758 345.247L858.23 318.059L854.137 311.442L847.795 331.68Z" fill="black"/>
<path d="M845.966 377.037C845.701 377.038 845.446 376.858 845.387 376.575C842.106 362.72 837.577 348.789 837.535 348.66C837.432 348.326 837.595 347.94 837.94 347.785C838.259 347.656 838.637 347.81 838.739 348.17C838.781 348.298 843.307 362.281 846.61 376.188C846.688 376.548 846.478 376.908 846.159 377.037C846.086 377.037 846.014 377.037 845.966 377.037Z" fill="black"/>
<path d="M859.573 368.95C859.276 368.95 859.055 368.668 859.048 368.334C858.885 352.868 858.166 346.214 858.148 346.137C858.099 345.778 858.326 345.418 858.626 345.34C858.926 345.263 859.211 345.519 859.239 345.879C859.236 345.956 859.974 352.661 860.153 368.23C860.16 368.589 859.913 368.924 859.615 368.95C859.615 368.95 859.594 368.95 859.573 368.95Z" fill="black"/>
<path d="M845.86 353.21C845.652 353.211 845.45 353.108 845.33 352.927L839.62 344.419C839.43 344.109 839.504 343.696 839.828 343.463C840.153 343.231 840.564 343.308 840.78 343.617L846.275 351.79L853.085 351.135L854.354 341.738C854.401 341.351 854.7 341.118 855.115 341.118C855.477 341.143 855.744 341.478 855.698 341.84L854.346 351.804C854.302 352.139 854.028 352.398 853.689 352.424L845.941 353.159C845.912 353.21 845.886 353.21 845.86 353.21Z" fill="black"/>
<path d="M844.497 369.639C844.161 369.614 843.943 369.28 843.978 368.921L845.688 352.476C845.724 352.116 846.008 351.859 846.303 351.858C846.597 351.884 846.815 352.217 846.779 352.577L845.07 369.022C845.035 369.356 844.791 369.639 844.497 369.639Z" fill="black"/>
<path d="M859.235 363.429C858.986 363.43 858.77 363.301 858.682 363.07L853.988 352.115C853.857 351.781 854.002 351.369 854.333 351.214C854.665 351.033 855.054 351.187 855.186 351.521L859.88 362.476C860.012 362.811 859.866 363.223 859.535 363.377C859.435 363.403 859.334 363.429 859.235 363.429Z" fill="black"/>
<path d="M1444.46 485.942L755.538 485.667C755.161 485.666 754.846 485.07 754.854 484.375C754.863 483.68 755.192 483.084 755.568 483.084L1444.49 483.36C1444.87 483.36 1445.18 483.956 1445.17 484.651C1445.19 485.346 1444.86 485.942 1444.46 485.942Z" fill="#151515"/>
<path d="M1337.88 287.501C1338.41 287.295 1338.8 287.449 1339.34 289.326C1339.93 291.409 1339.45 291.898 1338.95 291.975C1338.45 292.053 1337.85 291.513 1337.57 289.996C1337.28 288.453 1337.19 287.759 1337.88 287.501Z" fill="black"/>
<path d="M1353.63 283.915C1354.16 283.735 1354.55 283.889 1355.04 285.766C1355.57 287.848 1355.07 288.337 1354.57 288.389C1354.07 288.466 1353.47 287.901 1353.24 286.384C1353.03 284.867 1352.94 284.173 1353.63 283.915Z" fill="black"/>
<path d="M1427.04 485.732C1426.74 485.706 1426.54 485.398 1426.57 485.039C1427.08 475.819 1427.31 449.701 1427.31 449.444C1427.32 449.059 1427.52 448.802 1427.82 448.776C1428.08 448.776 1428.3 449.058 1428.3 449.443C1428.29 449.7 1428.06 475.869 1427.55 485.115C1427.54 485.449 1427.31 485.732 1427.04 485.732Z" fill="black"/>
<path d="M1108.22 429.245C1096.15 429.26 1084.18 425.485 1075.07 416.087C1064.47 405.118 1059.55 389.966 1056.15 376.618C1052.44 362.083 1050.8 350.279 1048.71 335.382L1048.65 334.892C1048.63 334.763 1048.66 334.608 1048.72 334.505C1048.94 334.093 1054.09 324.523 1071.1 323.007C1086.42 321.648 1091.34 327.288 1091.54 327.519C1091.59 327.597 1091.64 327.674 1091.66 327.751L1104.8 371.378C1105.84 374.882 1106.81 378.181 1110.01 380.007C1113.14 381.782 1117.09 381.365 1120.14 378.938C1123.09 376.589 1124.8 373.158 1126.44 369.573C1127.24 367.819 1128.03 366.039 1128.83 364.234C1131.38 358.457 1134.02 352.499 1137.28 346.978C1141.93 339.085 1147.52 333.69 1153.9 330.95C1158.24 329.089 1162.12 328.543 1166.66 328.28C1167 328.253 1167.36 328.537 1167.37 328.923C1167.38 329.284 1167.08 329.62 1166.69 329.646C1162.32 329.883 1158.54 330.429 1154.41 332.213C1148.33 334.824 1142.95 340.011 1138.47 347.647C1135.27 353.116 1132.63 359.022 1130.1 364.774C1129.3 366.553 1128.51 368.359 1127.72 370.113C1126.07 373.724 1124.19 377.464 1121.03 379.994C1117.55 382.782 1112.96 383.251 1109.34 381.219C1105.7 379.136 1104.62 375.425 1103.55 371.843L1098.97 356.665L1090.43 328.371C1089.77 327.702 1084.74 323.171 1071.24 324.399C1056.31 325.732 1050.9 333.652 1050.1 334.942L1050.14 335.2C1052.23 350.071 1053.87 361.824 1057.55 376.307C1060.9 389.501 1065.75 404.472 1076.15 415.209C1092.35 431.945 1118.04 430.29 1136.32 421.272C1136.67 421.091 1137.06 421.219 1137.23 421.554C1137.41 421.889 1137.23 422.302 1136.91 422.457C1128.34 426.591 1118.26 429.233 1108.22 429.245Z" fill="black"/>
<path d="M1222.98 485.47C1222.66 485.471 1222.38 485.214 1222.37 484.88C1222.36 484.546 1220.21 450.169 1222.51 424.96C1224.8 399.853 1224.26 365.834 1224.25 365.475C1224.16 360.284 1221.87 353.992 1219.38 347.982C1217.41 343.153 1215.09 339.507 1212.33 336.864C1209.3 333.938 1205.92 332.195 1201.03 331.07C1200.69 330.993 1200.49 330.633 1200.57 330.274C1200.65 329.914 1200.97 329.682 1201.33 329.759C1206.38 330.909 1210.03 332.781 1213.2 335.835C1216.1 338.633 1218.49 342.407 1220.55 347.39C1223.08 353.528 1225.42 359.975 1225.52 365.396C1225.54 365.73 1226.08 399.826 1223.78 425.035C1221.49 450.142 1223.61 484.39 1223.65 484.724C1223.66 485.084 1223.41 485.418 1223.07 485.47C1223.03 485.47 1223 485.47 1222.98 485.47Z" fill="black"/>
<path d="M1110.24 429.325C1108.37 429.327 1106.48 429.252 1104.51 429.1C1104.15 429.075 1103.87 428.74 1103.91 428.379C1103.94 428.018 1104.29 427.76 1104.66 427.759C1159.52 432.257 1174.69 370.127 1174.84 369.508C1174.93 369.147 1175.31 368.915 1175.67 368.966C1176.04 369.043 1176.26 369.404 1176.2 369.765C1176.02 370.384 1161.64 429.263 1110.24 429.325Z" fill="black"/>
<path d="M1234.22 439.372C1228.15 439.379 1223.35 435.862 1223.28 435.81C1222.98 435.579 1222.94 435.168 1223.16 434.859C1223.37 434.55 1223.8 434.473 1224.07 434.704C1224.54 435.038 1235.57 443.124 1244.9 433.008C1257.65 419.134 1235.48 365.191 1214.78 338.654C1214.56 338.372 1214.6 337.934 1214.91 337.703C1215.2 337.471 1215.6 337.496 1215.84 337.804C1237.3 365.317 1259.31 419.312 1245.88 433.907C1242.06 438.051 1237.92 439.367 1234.22 439.372Z" fill="black"/>
<path d="M1157.16 318.128C1153.11 317.747 1150.12 316.258 1148.27 313.661C1145.32 309.547 1146.11 304.039 1146.4 302.546C1145.37 301.543 1142.06 298.124 1142.16 295.859C1142.26 293.389 1147.45 292.25 1149.74 291.861L1151.76 279.866C1151.96 279.351 1155.52 270.005 1161.18 268.711C1161.39 268.685 1161.59 268.711 1161.74 268.839C1161.89 268.968 1161.99 269.148 1161.99 269.354C1161.98 269.56 1162.04 289.53 1173.14 291.447C1173.5 291.498 1173.74 291.858 1173.66 292.219C1173.59 292.579 1173.22 292.863 1172.86 292.76C1161.97 290.894 1160.76 274.374 1160.64 270.282C1156.15 272.114 1153.1 280.096 1153.04 280.173L1150.99 292.555C1150.93 292.864 1150.69 293.095 1150.4 293.122C1147.12 293.614 1143.56 294.828 1143.53 295.883C1143.46 297.325 1146 300.281 1147.64 301.823C1147.81 301.978 1147.88 302.209 1147.82 302.441C1147.82 302.492 1146.41 308.645 1149.4 312.862C1151.04 315.125 1153.69 316.46 1157.31 316.79C1157.67 316.815 1157.94 317.15 1157.9 317.51C1157.81 317.87 1157.5 318.128 1157.16 318.128Z" fill="black"/>
<path d="M1183.77 333.049C1178.4 333.056 1173.19 332.109 1168.95 331.007C1165.36 330.085 1162.79 328.852 1160.87 327.155C1158.31 324.918 1157 321.829 1157.38 318.894C1157.98 314.104 1162.6 310.622 1166.38 309.098C1167.06 308.84 1167.83 308.607 1168.64 308.349C1171.83 307.418 1174.07 306.592 1174.25 304.274C1174.29 303.913 1174.58 303.63 1174.95 303.629C1175.34 303.655 1175.64 303.963 1175.6 304.324C1175.36 307.774 1171.81 308.809 1168.99 309.636C1168.2 309.869 1167.47 310.075 1166.86 310.334C1163.45 311.702 1159.26 314.823 1158.73 319.021C1158.42 321.493 1159.58 324.221 1161.78 326.149C1163.56 327.718 1165.97 328.848 1169.33 329.719C1177.03 331.718 1188.09 333.25 1196.98 329.094C1199.57 327.881 1201.5 326.359 1202.7 324.555C1206.07 319.53 1202.25 315.132 1198.55 311.866L1198.15 311.532C1197.11 310.658 1195.51 309.347 1195.74 307.673C1196.32 303.604 1198.24 296.675 1201.49 287.093C1201.64 286.706 1201.72 286.449 1201.72 286.397C1202.78 280.474 1201.89 275.634 1199.06 272.007C1194.63 266.322 1186.78 265.636 1186.71 265.636C1184.65 264.763 1182.87 264.276 1179.94 263.791C1162.8 260.901 1155.64 263.15 1152.56 272.295C1151.29 276.03 1153.15 282.851 1153.18 282.902C1153.27 283.263 1153.05 283.623 1152.71 283.752C1152.34 283.856 1151.98 283.65 1151.86 283.316C1151.77 283.033 1149.88 276.057 1151.27 271.936C1155.07 260.653 1165.15 259.972 1180.19 262.503C1182.73 262.937 1184.75 263.399 1186.96 264.349C1188.05 264.45 1195.58 265.368 1200.13 271.208C1203.18 275.118 1204.16 280.318 1203.02 286.679C1203.02 286.705 1202.93 287.014 1202.76 287.529C1198.75 299.352 1197.47 305.096 1197.07 307.851C1196.93 308.804 1198.17 309.833 1199.01 310.527L1199.44 310.887C1203.22 314.23 1207.8 319.348 1203.8 325.301C1202.46 327.311 1200.32 329.013 1197.51 330.329C1193.2 332.317 1188.43 333.044 1183.77 333.049Z" fill="black"/>
<path d="M1004.49 322.609C1004.31 322.61 1004.15 322.558 1004.02 322.404C1003.77 322.146 1003.78 321.708 1004.05 321.45L1033.33 293.558C1033.6 293.3 1034.05 293.299 1034.3 293.557C1034.55 293.814 1034.54 294.252 1034.27 294.51L1004.97 322.403C1004.83 322.532 1004.65 322.609 1004.49 322.609Z" fill="#151515"/>
<path d="M996.031 322.492C995.847 322.492 995.692 322.441 995.565 322.287L986.268 312.866C986.014 312.609 986.028 312.171 986.299 311.913C986.57 311.655 987.016 311.654 987.27 311.912L996.567 321.332C996.821 321.589 996.807 322.027 996.536 322.285C996.401 322.415 996.215 322.492 996.031 322.492Z" fill="#151515"/>
<path d="M951.677 339.229C951.493 339.229 951.337 339.178 951.211 339.023C950.957 338.766 950.972 338.328 951.242 338.07L978.921 311.7C979.192 311.442 979.638 311.442 979.892 311.699C980.146 311.956 980.132 312.394 979.861 312.652L952.182 339.022C952.021 339.151 951.861 339.229 951.677 339.229Z" fill="#151515"/>
<path d="M943.06 339.606C942.877 339.606 942.721 339.555 942.595 339.4L922.476 319.015C922.222 318.758 922.236 318.319 922.507 318.061C922.778 317.803 923.224 317.803 923.478 318.06L943.597 338.445C943.851 338.703 943.837 339.141 943.566 339.399C943.404 339.528 943.218 339.606 943.06 339.606Z" fill="#151515"/>
<path d="M982.873 314.34C979.619 314.344 977.054 311.745 977.158 308.549C977.263 305.354 979.998 302.748 983.252 302.744C986.506 302.74 989.071 305.339 988.967 308.535C988.863 311.73 986.127 314.337 982.873 314.34ZM983.207 304.109C980.715 304.112 978.628 306.125 978.549 308.547C978.469 310.996 980.425 312.978 982.918 312.975C985.411 312.972 987.496 310.985 987.576 308.537C987.655 306.114 985.7 304.106 983.207 304.109Z" fill="#151515"/>
<path d="M1000.42 331.431C997.162 331.435 994.596 328.835 994.7 325.665C994.804 322.47 997.54 319.864 1000.79 319.86C1004.05 319.856 1006.61 322.455 1006.51 325.651C1006.41 328.821 1003.67 331.427 1000.42 331.431ZM1000.75 321.2C998.257 321.203 996.172 323.189 996.092 325.638C996.012 328.086 997.968 330.068 1000.46 330.065C1002.95 330.062 1005.04 328.075 1005.12 325.627C1005.23 323.179 1003.24 321.197 1000.75 321.2Z" fill="#151515"/>
<path d="M947.338 348.363C944.084 348.367 941.518 345.767 941.622 342.597C941.726 339.402 944.462 336.796 947.716 336.792C950.97 336.788 953.535 339.387 953.431 342.583C953.301 345.753 950.592 348.359 947.338 348.363ZM947.672 338.132C945.179 338.135 943.093 340.122 943.013 342.57C942.933 345.018 944.889 347 947.382 346.997C949.875 346.994 951.961 345.007 952.041 342.559C952.12 340.137 950.165 338.129 947.672 338.132Z" fill="#151515"/>
<path d="M918.462 320.284C915.208 320.288 912.643 317.688 912.747 314.492C912.852 311.297 915.587 308.691 918.841 308.687C922.095 308.683 924.66 311.283 924.556 314.478C924.452 317.674 921.716 320.28 918.462 320.284ZM918.797 310.027C916.304 310.03 914.218 312.043 914.139 314.465C914.06 316.887 916.015 318.895 918.508 318.892C921.001 318.889 923.087 316.877 923.166 314.454C923.245 312.032 921.317 310.024 918.797 310.027Z" fill="#151515"/>
<path d="M1354.87 434.968L1292.84 435.043C1292.56 435.043 1292.3 434.863 1292.2 434.58L1284.47 410.183C1284.35 409.822 1284.57 409.436 1284.91 409.332C1285.29 409.229 1285.67 409.408 1285.77 409.743L1293.36 433.702L1353.94 433.629L1326.26 346.244L1265.68 346.316L1275.34 376.819C1275.46 377.18 1275.24 377.567 1274.89 377.67C1274.52 377.799 1274.16 377.594 1274.04 377.259L1264.09 345.88C1264.02 345.674 1264.08 345.442 1264.19 345.262C1264.33 345.081 1264.54 344.978 1264.75 344.977L1326.77 344.903C1327.06 344.902 1327.32 345.083 1327.42 345.366L1355.53 434.091C1355.6 434.298 1355.54 434.53 1355.43 434.71C1355.32 434.839 1355.1 434.968 1354.87 434.968Z" fill="black"/>
<path d="M1358.99 431.305L1353.73 431.312C1353.37 431.312 1353.06 431.003 1353.07 430.643C1353.08 430.282 1353.41 429.972 1353.78 429.972L1358.08 429.966L1330.4 342.581L1269.82 342.653L1270.47 344.689C1270.59 345.049 1270.36 345.436 1270.02 345.54C1269.65 345.669 1269.29 345.463 1269.17 345.128L1268.24 342.217C1268.16 342.011 1268.22 341.779 1268.34 341.599C1268.47 341.418 1268.69 341.315 1268.9 341.314L1330.92 341.24C1331.21 341.239 1331.46 341.42 1331.56 341.703L1359.67 430.428C1359.74 430.634 1359.68 430.866 1359.57 431.047C1359.41 431.202 1359.2 431.305 1358.99 431.305Z" fill="black"/>
<path d="M1331.41 286.892C1331.04 286.893 1330.73 286.583 1330.75 286.221C1330.76 285.885 1331.06 278.213 1343.34 274.685C1354.78 271.39 1357.97 266.426 1358 266.375C1358.16 266.116 1358.49 265.986 1358.77 266.064C1359.06 266.115 1359.27 266.373 1359.28 266.657C1359.28 266.812 1359.91 281.51 1366.36 284.344C1366.7 284.499 1366.85 284.886 1366.68 285.222C1366.51 285.558 1366.08 285.713 1365.74 285.559C1359.91 282.983 1358.4 272.574 1358.01 268.441C1356.2 270.303 1352.06 273.563 1343.69 275.976C1332.49 279.193 1332.13 285.91 1332.12 286.194C1332.11 286.581 1331.78 286.892 1331.41 286.892Z" fill="black"/>
<path d="M1371.63 310.189C1371.31 310.189 1371.03 309.957 1370.96 309.648C1370.89 309.287 1371.17 308.926 1371.54 308.874C1375.81 308.12 1385.3 304.73 1387.9 300.317C1388.62 299.078 1388.74 297.866 1388.25 296.603C1388.08 296.19 1387.86 295.778 1387.66 295.365C1387.39 294.85 1387.12 294.334 1386.92 293.767C1386.03 291.267 1386.69 288.738 1387.35 286.313C1387.65 285.255 1387.89 284.275 1388.06 283.269C1388.67 279.193 1388.22 275.016 1386.77 271.226C1384.27 264.627 1378.91 260.016 1372.05 258.58C1369.8 258.093 1367.38 257.916 1364.9 258.073C1364.8 258.073 1364.56 258.125 1364.24 258.177C1362.04 258.541 1361.64 258.567 1361.34 258.206C1357.65 254.317 1350.71 252.855 1344.82 254.745C1341.07 255.961 1337.82 258.338 1335.94 261.306C1335.32 262.287 1334.76 263.319 1334.23 264.326C1333.64 265.436 1333.05 266.571 1332.33 267.655C1330.41 270.598 1328.01 272.277 1325.47 274.085C1324.8 274.55 1324.13 275.041 1323.42 275.558C1322.4 276.333 1321.49 277.546 1320.72 279.172C1318.82 283.198 1318.81 287.634 1319.16 290.651C1320.39 301.482 1328.26 308.9 1338.41 308.888C1338.62 308.887 1338.8 308.887 1339.01 308.887C1339.41 308.886 1339.69 309.17 1339.7 309.531C1339.69 309.892 1339.39 310.202 1339.02 310.228C1327.83 310.628 1319.11 302.592 1317.78 290.833C1317.41 287.635 1317.44 282.941 1319.47 278.632C1320.32 276.825 1321.4 275.431 1322.61 274.502C1323.32 273.985 1324.02 273.468 1324.69 273.003C1327.23 271.22 1329.41 269.67 1331.16 266.96C1331.83 265.928 1332.42 264.818 1332.98 263.734C1333.52 262.702 1334.11 261.644 1334.75 260.611C1336.8 257.385 1340.31 254.776 1344.39 253.456C1350.68 251.411 1358.08 252.975 1362.14 257.097C1362.56 257.07 1363.54 256.914 1363.99 256.836C1364.39 256.759 1364.71 256.707 1364.81 256.706C1367.4 256.549 1369.95 256.726 1372.34 257.239C1379.64 258.778 1385.35 263.697 1388 270.709C1389.5 274.705 1389.99 279.088 1389.35 283.396C1389.18 284.48 1388.91 285.538 1388.61 286.595C1387.98 288.917 1387.38 291.136 1388.15 293.25C1388.32 293.74 1388.57 294.204 1388.82 294.693C1389.07 295.132 1389.29 295.596 1389.49 296.06C1390.12 297.684 1389.98 299.309 1389.04 300.935C1385.94 306.2 1375.23 309.565 1371.68 310.189C1371.71 310.189 1371.68 310.189 1371.63 310.189Z" fill="black"/>
<path d="M1334.11 285.457C1333.9 285.457 1333.71 285.38 1333.56 285.199C1333.33 284.915 1333.4 284.476 1333.7 284.243C1333.78 284.166 1335.84 282.639 1338.38 282.171C1338.78 282.119 1339.11 282.351 1339.18 282.713C1339.25 283.074 1338.97 283.436 1338.6 283.514C1336.41 283.93 1334.54 285.301 1334.51 285.327C1334.43 285.405 1334.27 285.457 1334.11 285.457Z" fill="black"/>
<path d="M1347.83 281.527C1347.64 281.527 1347.43 281.449 1347.3 281.293C1347.04 281.008 1347.11 280.592 1347.39 280.332C1347.55 280.175 1351.66 276.844 1357.67 279.305C1358.01 279.461 1358.18 279.851 1358.01 280.189C1357.84 280.527 1357.43 280.683 1357.09 280.554C1351.88 278.429 1348.31 281.318 1348.29 281.344C1348.18 281.474 1348.01 281.526 1347.83 281.527Z" fill="black"/>
<path d="M1360.42 415.427C1359.61 415.428 1359.01 415.196 1358.58 414.733C1357.21 413.214 1358.49 410.119 1362.38 405.526C1362.62 405.242 1363.07 405.19 1363.35 405.422C1363.63 405.653 1363.67 406.091 1363.43 406.375C1359.65 410.814 1359.03 413.16 1359.63 413.829C1360.06 414.319 1361.83 414.214 1365.36 412.379C1368.73 410.622 1372.74 407.782 1376.69 404.374C1380.64 400.967 1384.02 397.406 1386.22 394.361C1388.53 391.136 1388.85 389.435 1388.42 388.945C1387.79 388.25 1386.14 388.613 1383.39 390.034C1383.07 390.215 1382.63 390.087 1382.48 389.777C1382.3 389.443 1382.45 389.03 1382.8 388.875C1385.31 387.557 1388.05 386.445 1389.5 388.042C1390.59 389.252 1389.86 391.65 1387.35 395.108C1385.09 398.255 1381.63 401.894 1377.6 405.379C1373.57 408.863 1369.45 411.781 1366 413.59C1363.62 414.804 1361.76 415.425 1360.42 415.427Z" fill="black"/>
<path d="M1344.53 300.955C1342.86 300.957 1341.46 300.418 1340.78 299.468C1340.25 298.723 1340.2 297.797 1340.66 296.871C1341.47 295.173 1342.26 287.896 1342.52 285.247C1342.55 284.887 1342.79 284.63 1343.25 284.603C1343.6 284.629 1343.87 284.937 1343.83 285.323C1343.75 286.325 1342.91 295.197 1341.86 297.435C1341.61 297.924 1341.63 298.335 1341.87 298.669C1342.4 299.414 1343.98 299.798 1345.61 299.539C1345.97 299.487 1346.31 299.744 1346.35 300.104C1346.39 300.464 1346.13 300.824 1345.77 300.876C1345.34 300.928 1344.91 300.954 1344.53 300.955Z" fill="black"/>
<path d="M1276.43 352.833C1275.21 352.834 1273.94 352.192 1272.77 350.984C1271.39 349.571 1270.32 347.488 1269.7 345.121C1268.39 340.028 1269.7 335.369 1272.7 334.516C1275.49 333.741 1278.63 336.593 1280.11 341.172C1280.23 341.532 1280.03 341.892 1279.67 342.021C1279.3 342.15 1278.92 341.971 1278.83 341.611C1277.61 337.778 1275.06 335.234 1273.05 335.802C1270.86 336.422 1269.95 340.515 1271.03 344.733C1271.58 346.894 1272.55 348.772 1273.78 350.031C1274.9 351.188 1276.08 351.675 1277.07 351.391C1277.43 351.287 1277.79 351.493 1277.88 351.853C1277.97 352.213 1277.75 352.574 1277.39 352.677C1277.08 352.78 1276.74 352.832 1276.43 352.833Z" fill="black"/>
<path d="M1295.89 352.875C1294.67 352.876 1293.4 352.235 1292.22 351.027C1290.85 349.613 1289.78 347.53 1289.16 345.164C1287.85 340.07 1289.16 335.411 1292.16 334.558C1294.95 333.783 1298.09 336.636 1299.57 341.214C1299.68 341.574 1299.49 341.935 1299.13 342.064C1298.76 342.193 1298.38 342.013 1298.29 341.653C1297.07 337.821 1294.51 335.276 1292.51 335.845C1290.32 336.465 1289.41 340.557 1290.49 344.776C1291.04 346.937 1292.01 348.814 1293.24 350.073C1294.36 351.23 1295.53 351.718 1296.53 351.433C1296.89 351.33 1297.25 351.535 1297.34 351.896C1297.43 352.256 1297.21 352.616 1296.85 352.72C1296.53 352.823 1296.2 352.875 1295.89 352.875Z" fill="black"/>
<path d="M1315.5 352.919C1314.29 352.921 1313.01 352.279 1311.84 351.071C1310.46 349.657 1309.39 347.574 1308.77 345.208C1308.18 342.841 1308.1 340.474 1308.6 338.518C1309.13 336.433 1310.26 335.042 1311.75 334.603C1314.53 333.828 1317.67 336.68 1319.15 341.259C1319.27 341.619 1319.08 341.979 1318.71 342.108C1318.35 342.237 1317.99 342.058 1317.87 341.698C1316.65 337.865 1314.1 335.321 1312.09 335.889C1311.1 336.173 1310.32 337.203 1309.91 338.799C1309.46 340.524 1309.52 342.685 1310.08 344.82C1310.63 346.981 1311.6 348.858 1312.83 350.118C1313.95 351.274 1315.12 351.762 1316.11 351.478C1316.48 351.374 1316.83 351.58 1316.93 351.94C1317.02 352.3 1316.8 352.66 1316.43 352.764C1316.12 352.867 1315.81 352.919 1315.5 352.919Z" fill="black"/>
<path d="M1094.2 509.976C1094.12 509.976 1059.92 506.826 1059.92 506.826C1059.6 506.8 1059.37 506.567 1059.33 506.256C1059.28 505.944 1059.45 505.659 1059.75 505.529L1087.7 493.61C1087.81 493.558 1087.94 493.558 1088.05 493.558L1097.51 494.429C1097.88 494.454 1098.16 494.791 1098.1 495.155C1098.06 495.544 1097.68 495.778 1097.33 495.778L1088.06 494.907L1062.73 505.707L1094.06 508.601L1108.01 500.825C1108.34 500.643 1108.76 500.747 1108.97 501.058C1109.14 501.369 1109.02 501.784 1108.7 501.992L1094.55 509.898C1094.47 509.924 1094.33 509.976 1094.2 509.976Z" fill="#0F132D"/>
<path d="M1113.42 505.081C1113.28 505.081 1113.18 505.055 1113.07 504.977L1091.55 492.554C1091.29 492.398 1091.16 492.112 1091.25 491.826C1091.32 491.54 1091.59 491.332 1091.88 491.306L1120.63 488.594C1120.74 488.594 1120.87 488.593 1120.98 488.645L1148.18 500.516C1148.47 500.646 1148.62 500.932 1148.55 501.244C1148.49 501.556 1148.24 501.79 1147.92 501.816L1113.47 505.055C1113.44 505.081 1113.42 505.081 1113.42 505.081ZM1094.11 492.447L1113.6 503.703L1145.15 500.728L1120.51 489.971L1094.11 492.447Z" fill="#0F132D"/>
<path d="M1318.48 360.953L1278.15 360.997C1277.77 360.998 1277.46 360.658 1277.47 360.261C1277.48 359.864 1277.81 359.524 1278.19 359.523L1318.52 359.478C1318.9 359.478 1319.21 359.818 1319.2 360.215C1319.19 360.612 1318.86 360.952 1318.48 360.953Z" fill="black"/>
<path d="M1322.03 371.258L1281.69 371.302C1281.31 371.303 1281 370.963 1281.01 370.566C1281.03 370.169 1281.36 369.829 1281.73 369.828L1322.07 369.783C1322.44 369.783 1322.76 370.123 1322.74 370.52C1322.76 370.917 1322.43 371.257 1322.03 371.258Z" fill="black"/>
<path d="M1328.85 390.506L1294.83 390.544C1294.46 390.544 1294.15 390.209 1294.16 389.818C1294.17 389.427 1294.5 389.091 1294.88 389.09L1328.9 389.052C1329.27 389.051 1329.58 389.387 1329.57 389.778C1329.56 390.169 1329.23 390.505 1328.85 390.506Z" fill="black"/>
<path d="M1325.68 381.357L1294 381.393C1293.62 381.393 1293.31 381.06 1293.32 380.671C1293.33 380.281 1293.66 379.947 1294.04 379.947L1325.72 379.911C1326.1 379.91 1326.41 380.244 1326.4 380.633C1326.38 381.022 1326.05 381.356 1325.68 381.357Z" fill="black"/>
<path d="M1332.32 400.605L1296.58 400.645C1296.2 400.646 1295.89 400.309 1295.9 399.916C1295.91 399.523 1296.25 399.186 1296.62 399.186L1332.36 399.146C1332.74 399.145 1333.05 399.482 1333.04 399.875C1333.03 400.267 1332.69 400.605 1332.32 400.605Z" fill="black"/>
<path d="M1335.79 410.703L1295.45 410.748C1295.08 410.748 1294.76 410.408 1294.78 410.011C1294.79 409.614 1295.12 409.274 1295.5 409.273L1335.83 409.229C1336.21 409.228 1336.52 409.568 1336.51 409.965C1336.5 410.362 1336.19 410.702 1335.79 410.703Z" fill="black"/>
<path d="M1258.18 315.757L1225.96 315.796C1225.59 315.796 1225.29 315.487 1225.3 315.127L1226.33 283.48C1226.34 283.12 1226.67 282.81 1227.03 282.809L1259.26 282.771C1259.63 282.77 1259.93 283.079 1259.92 283.44L1258.89 315.086C1258.88 315.447 1258.55 315.757 1258.18 315.757ZM1226.69 314.455L1257.55 314.418L1258.53 284.111L1227.67 284.149L1226.69 314.455Z" fill="#151515"/>
<path d="M1119.92 269.308L1087.69 269.347C1087.32 269.347 1087.02 269.038 1087.03 268.677L1088.07 237.031C1088.08 236.67 1088.4 236.361 1088.77 236.36L1120.99 236.322C1121.36 236.321 1121.67 236.63 1121.65 236.991L1120.62 268.637C1120.61 269.024 1120.28 269.307 1119.92 269.308ZM1088.42 268.006L1119.28 267.969L1120.27 237.662L1089.41 237.7L1088.42 268.006Z" fill="black"/>
<path d="M1104.49 245.09C1102.79 245.093 1101.41 243.728 1101.47 242.053C1101.52 240.378 1102.96 239.011 1104.69 239.008C1106.4 239.006 1107.77 240.371 1107.71 242.046C1107.66 243.721 1106.22 245.088 1104.49 245.09ZM1104.65 240.349C1103.68 240.35 1102.89 241.124 1102.86 242.052C1102.83 243.005 1103.59 243.752 1104.54 243.75C1105.51 243.749 1106.29 242.975 1106.32 242.047C1106.38 241.094 1105.62 240.347 1104.65 240.349Z" fill="black"/>
<path d="M1114.59 251.651L1110.88 251.656C1110.51 251.656 1110.2 251.344 1110.21 250.98C1110.22 250.616 1110.55 250.303 1110.92 250.303L1114.64 250.298C1115.01 250.298 1115.32 250.61 1115.31 250.974C1115.32 251.364 1114.99 251.651 1114.59 251.651Z" fill="black"/>
<path d="M1103.06 251.626L1094.4 251.636C1094.03 251.637 1093.72 251.321 1093.73 250.952C1093.74 250.583 1094.07 250.267 1094.45 250.267L1103.1 250.256C1103.48 250.256 1103.79 250.571 1103.78 250.94C1103.79 251.335 1103.46 251.625 1103.06 251.626Z" fill="black"/>
<path d="M1114.53 258.199L1094.33 258.223C1093.95 258.223 1093.64 257.899 1093.65 257.519C1093.66 257.14 1094 256.815 1094.37 256.814L1114.58 256.791C1114.95 256.79 1115.26 257.115 1115.25 257.494C1115.24 257.873 1114.94 258.199 1114.53 258.199Z" fill="black"/>
<path d="M1242.76 291.54C1241.05 291.542 1239.68 290.178 1239.73 288.503C1239.79 286.828 1241.22 285.46 1242.96 285.458C1244.66 285.456 1246.03 286.82 1245.98 288.495C1245.93 290.171 1244.49 291.538 1242.76 291.54ZM1242.91 286.772C1241.94 286.774 1241.16 287.548 1241.13 288.476C1241.1 289.403 1241.86 290.175 1242.8 290.174C1243.77 290.173 1244.56 289.399 1244.59 288.471C1244.62 287.544 1243.88 286.771 1242.91 286.772Z" fill="black"/>
<path d="M1252.88 298.102L1232.67 298.125C1232.3 298.126 1231.99 297.801 1232 297.422C1232.01 297.043 1232.34 296.717 1232.72 296.717L1252.92 296.693C1253.3 296.693 1253.61 297.018 1253.6 297.397C1253.59 297.776 1253.25 298.101 1252.88 298.102Z" fill="#151515"/>
<path d="M1242.26 304.626L1232.62 304.637C1232.24 304.638 1231.93 304.321 1231.94 303.952C1231.96 303.582 1232.29 303.265 1232.66 303.264L1242.31 303.253C1242.68 303.252 1243 303.569 1242.98 303.938C1242.97 304.308 1242.64 304.625 1242.26 304.626Z" fill="#151515"/>
<path d="M990.626 392.504L974.989 392.522C974.614 392.522 974.302 392.201 974.314 391.826C974.325 391.451 974.657 391.129 975.033 391.129L990.67 391.11C991.046 391.11 991.358 391.431 991.346 391.806C991.334 392.181 991.002 392.503 990.626 392.504Z" fill="#151515"/>
<path d="M967.598 392.453L908.612 392.515C908.236 392.516 907.923 392.162 907.934 391.749C907.946 391.337 908.277 390.983 908.654 390.982L967.639 390.92C968.015 390.92 968.328 391.273 968.317 391.686C968.306 392.098 967.974 392.452 967.598 392.453Z" fill="#151515"/>
<path d="M971.8 404.402L908.515 404.468C908.139 404.468 907.826 404.112 907.837 403.696C907.848 403.279 908.18 402.922 908.556 402.922L971.842 402.856C972.218 402.855 972.531 403.212 972.52 403.628C972.508 404.044 972.177 404.401 971.8 404.402Z" fill="#151515"/>
<path d="M990.433 416.383L952.974 416.425C952.598 416.426 952.286 416.088 952.297 415.694C952.309 415.299 952.641 414.961 953.017 414.96L990.476 414.918C990.852 414.918 991.164 415.256 991.153 415.65C991.14 416.073 990.809 416.383 990.433 416.383Z" fill="#151515"/>
<path d="M925.103 416.238L908.417 416.258C908.042 416.259 907.73 415.937 907.742 415.561C907.753 415.185 908.085 414.862 908.461 414.861L925.146 414.842C925.522 414.841 925.834 415.163 925.822 415.539C925.809 415.942 925.478 416.238 925.103 416.238Z" fill="#151515"/>
<path d="M1053.11 392.642L1032.07 392.667C1031.69 392.667 1031.38 392.342 1031.39 391.962C1031.41 391.582 1031.74 391.256 1032.11 391.255L1053.15 391.231C1053.53 391.23 1053.84 391.556 1053.83 391.936C1053.82 392.315 1053.51 392.641 1053.11 392.642Z" fill="#151515"/>
<path d="M1066.93 404.613L1031.97 404.652C1031.6 404.653 1031.29 404.317 1031.3 403.925C1031.31 403.532 1031.64 403.196 1032.02 403.196L1066.98 403.156C1067.35 403.156 1067.66 403.492 1067.65 403.884C1067.64 404.276 1067.34 404.613 1066.93 404.613Z" fill="#151515"/>
<path d="M1071.46 416.563L1031.88 416.607C1031.5 416.607 1031.19 416.268 1031.2 415.872C1031.21 415.476 1031.54 415.136 1031.92 415.135L1071.5 415.091C1071.88 415.091 1072.19 415.43 1072.18 415.826C1072.17 416.251 1071.86 416.562 1071.46 416.563Z" fill="#151515"/>
<path d="M1226 450.548L1224.74 450.549C1224.37 450.55 1224.06 450.241 1224.07 449.879C1224.08 449.518 1224.41 449.208 1224.78 449.208L1226.05 449.206C1233.89 449.197 1240.25 444.39 1241.88 437.268C1241.97 436.906 1242.32 436.699 1242.71 436.725C1243.08 436.802 1243.33 437.137 1243.24 437.524C1241.43 445.318 1234.53 450.538 1226 450.548Z" fill="#151515"/>
<path d="M1243.1 389.675C1242.87 389.675 1242.69 389.367 1242.69 389.008L1243.79 321.727C1243.79 321.368 1243.99 321.06 1244.22 321.06C1244.44 321.06 1244.63 321.368 1244.63 321.727L1243.53 389.007C1243.52 389.392 1243.32 389.675 1243.1 389.675Z" fill="#151515"/>
<path d="M1242.63 276.901C1242.26 276.902 1241.95 276.59 1241.96 276.227L1243.59 226.69C1243.87 218.092 1237.22 211.086 1228.79 211.096L1023.13 211.345C1022.76 211.345 1022.45 211.034 1022.46 210.671C1022.47 210.307 1022.8 209.995 1023.18 209.994L1228.84 209.746C1238.07 209.735 1245.31 217.337 1245 226.688L1243.37 276.199C1243.33 276.589 1243 276.901 1242.63 276.901Z" fill="#151515"/>
<path d="M872.728 351.539C872.389 351.539 872.108 351.231 872.118 350.871L875.797 226.446C876.071 217.195 883.093 209.658 891.466 209.649L903.178 209.636C903.517 209.635 903.798 209.943 903.788 210.303C903.777 210.663 903.478 210.971 903.139 210.972L891.427 210.985C883.755 210.994 877.331 217.939 877.08 226.445L873.402 350.844C873.366 351.23 873.091 351.538 872.728 351.539Z" fill="#151515"/>
<path d="M1128.74 450.281L888.074 450.57C878.816 450.581 871.547 442.916 871.855 433.487L872.749 406.089C872.76 405.723 873.092 405.408 873.466 405.408C873.841 405.407 874.152 405.721 874.14 406.088L873.246 433.485C872.963 442.155 879.636 449.218 888.092 449.208L1128.76 448.919C1129.14 448.918 1129.45 449.232 1129.43 449.599C1129.45 449.966 1129.12 450.28 1128.74 450.281Z" fill="#151515"/>
<path d="M1314.57 261.979L1295.86 262.007C1295.5 262.008 1295.21 261.699 1295.23 261.338C1295.25 260.977 1295.57 260.667 1295.93 260.667L1313.98 260.64L1321.05 131.306L1192.24 131.498L1187.92 210.485C1187.9 210.846 1187.58 211.156 1187.22 211.157C1186.86 211.157 1186.57 210.848 1186.59 210.487L1190.94 130.83C1190.96 130.469 1191.29 130.159 1191.65 130.159L1321.79 129.964C1322.15 129.964 1322.44 130.273 1322.42 130.634L1315.28 261.308C1315.26 261.669 1314.93 261.979 1314.57 261.979Z" fill="#151515"/>
<path d="M1301.04 261.926L1245.44 262.005C1245.06 262.005 1244.76 261.65 1244.77 261.234C1244.79 260.819 1245.13 260.463 1245.51 260.462L1301.11 260.383C1301.48 260.383 1301.79 260.738 1301.77 261.154C1301.75 261.569 1301.41 261.926 1301.04 261.926Z" fill="#151515"/>
<path d="M1220.83 210.966C1220.49 210.967 1220.21 210.658 1220.23 210.298L1222.88 158.767L1200.88 158.799L1198.24 210.305C1198.22 210.665 1197.91 210.974 1197.56 210.975C1197.22 210.975 1196.94 210.667 1196.96 210.307L1199.64 158.132C1199.66 157.772 1199.97 157.463 1200.31 157.462L1223.59 157.428C1223.93 157.428 1224.21 157.736 1224.19 158.096L1221.51 210.296C1221.49 210.656 1221.2 210.965 1220.83 210.966Z" fill="#151515"/>
<path d="M1263.45 234.581L1245.14 234.608C1244.79 234.608 1244.51 234.3 1244.53 233.94C1244.55 233.579 1244.86 233.27 1245.21 233.27L1262.88 233.244L1265.26 187.441L1243.09 187.473L1241.59 216.319C1241.57 216.679 1241.26 216.988 1240.91 216.989C1240.56 216.989 1240.28 216.681 1240.3 216.321L1241.83 186.806C1241.85 186.446 1242.17 186.137 1242.51 186.136L1265.97 186.102C1266.31 186.101 1266.6 186.409 1266.58 186.77L1264.13 233.937C1264.13 234.297 1263.82 234.58 1263.45 234.581Z" fill="#151515"/>
<path d="M1306.77 234.675L1282.66 234.711C1282.3 234.711 1282.02 234.403 1282.04 234.042L1283.65 203.979C1283.67 203.618 1284 203.308 1284.35 203.308L1308.46 203.272C1308.82 203.271 1309.11 203.58 1309.09 203.941L1307.47 234.004C1307.45 234.39 1307.13 234.674 1306.77 234.675ZM1283.39 233.37L1306.18 233.336L1307.73 204.612L1284.94 204.646L1283.39 233.37Z" fill="#151515"/>
<path d="M849.323 273.036C849.191 273.036 849.059 273.011 848.955 272.933C848.643 272.727 848.55 272.313 848.773 272.002C848.801 271.95 849.778 270.526 851.491 270.162C852.588 269.927 853.722 270.185 854.84 270.934C855.152 271.14 855.218 271.554 854.995 271.865C854.772 272.176 854.344 272.254 854.032 272.047C853.227 271.505 852.463 271.299 851.767 271.455C850.643 271.689 849.947 272.673 849.947 272.673C849.779 272.932 849.563 273.036 849.323 273.036Z" fill="black"/>
<path d="M875.402 397.358C875.182 397.358 874.995 397.255 874.891 397.049C874.764 396.818 874.814 396.534 874.982 396.302L902.23 359.493C902.286 359.416 902.366 359.338 902.468 359.287C903.784 358.537 904.949 358.381 905.939 358.817C906.506 359.048 907.009 359.46 907.47 360.051C908.663 361.518 908.718 363.373 907.67 364.972C908.864 365.872 910.184 367.827 909.088 370.792C906.951 376.644 884.875 395.771 875.525 397.358C875.451 397.358 875.427 397.358 875.402 397.358ZM903.08 360.394L877.003 395.603C886.987 392.392 906.165 375.022 907.848 370.408C909.043 367.16 906.465 365.85 906.347 365.798C906.158 365.721 906.052 365.541 906.021 365.335C905.991 365.129 906.06 364.897 906.221 364.742C907.306 363.555 907.358 362.138 906.408 360.981C906.055 360.543 905.688 360.26 905.288 360.081C904.723 359.824 903.979 359.928 903.08 360.394Z" fill="black"/>
<path d="M856.122 375.898C855.891 375.899 855.673 375.77 855.564 375.563C855.457 375.33 855.51 375.046 855.683 374.839C858.541 371.473 865.508 360.161 867.103 357.133C867.382 356.616 867.613 356.073 867.849 355.477C868.932 352.967 870.328 349.862 874.275 350.451C875.161 350.578 875.828 351.12 876.237 351.947C877.186 353.859 876.723 357.402 875.033 361.18C872.69 366.433 873.023 367.803 874.443 368.524C876.452 369.529 882.148 365.435 883.994 364.087C886.086 362.584 889.626 359.32 891.959 357.17C892.689 356.496 893.307 355.927 893.726 355.564C895.967 353.569 899.355 350.564 902.444 353.714C903.357 354.643 903.77 355.702 903.667 356.789C903.46 358.987 901.201 360.904 899.556 362.303C899.221 362.588 898.914 362.847 898.661 363.08C896.442 365.126 888.784 371.241 885.983 372.927C885.875 372.979 885.793 373.031 885.691 373.031L856.125 375.872C856.148 375.898 856.122 375.898 856.122 375.898ZM873.18 351.719C871.076 351.723 870.204 353.353 869.09 355.915C868.826 356.536 868.565 357.131 868.283 357.675C866.816 360.444 860.905 370.072 857.619 374.448L885.579 371.764C888.357 370.053 895.767 364.119 897.846 362.202C898.127 361.943 898.434 361.684 898.794 361.399C900.243 360.181 902.226 358.472 902.377 356.868C902.446 356.144 902.15 355.472 901.497 354.775C899.602 352.839 897.682 353.877 894.604 356.597C894.185 356.959 893.592 357.529 892.862 358.203C890.501 360.379 886.933 363.668 884.759 365.223C880.686 368.152 876.187 370.978 873.81 369.792C871.091 368.426 871.757 365.452 873.866 360.768C875.333 357.456 875.818 354.223 875.066 352.673C874.83 352.182 874.472 351.898 873.992 351.821C873.665 351.744 873.411 351.719 873.18 351.719Z" fill="black"/>
<path d="M891.52 379.453C891.321 379.453 891.153 379.376 891.045 379.196C890.847 378.913 890.936 378.474 891.232 378.242C891.232 378.242 894.878 375.399 898.931 372.195C902.233 369.586 906.427 364.834 906.456 364.783C906.652 364.55 906.958 364.473 907.223 364.575C907.865 364.909 907.977 365.322 907.772 365.657C907.622 365.941 907.309 366.096 907.042 366.02C905.96 367.233 902.532 370.952 899.66 373.226C895.582 376.43 891.935 379.272 891.935 379.272C891.824 379.401 891.67 379.453 891.52 379.453Z" fill="black"/>
<path d="M1366.85 354.892C1358.21 354.903 1356.08 348.25 1355.57 345.285C1353.44 347.273 1348.48 351.51 1344.29 351.515C1342.44 351.465 1341.12 350.745 1340.11 349.43C1335.23 342.962 1349.97 324.553 1350.57 323.779C1350.82 323.495 1351.25 323.417 1351.55 323.649C1351.86 323.88 1351.9 324.293 1351.66 324.603C1347.56 329.689 1337.68 343.939 1341.22 348.604C1341.98 349.609 1342.94 350.123 1344.15 350.148C1349.05 350.142 1355.52 343.428 1355.58 343.35C1355.77 343.144 1356.06 343.066 1356.32 343.169C1356.58 343.272 1356.76 343.503 1356.75 343.761C1356.76 344.148 1357.09 353.537 1366.87 353.525C1375.02 353.515 1379.03 331.766 1379.88 323.408C1379.92 323.047 1380.25 322.763 1380.64 322.788C1381.01 322.813 1381.29 323.123 1381.25 323.509C1381.15 324.799 1377.96 354.879 1366.85 354.892Z" fill="black"/>
<path d="M1174.64 158.529C1174.3 158.529 1174.01 158.297 1173.97 157.962C1173.89 157.189 1173.54 154.43 1172.4 150.511C1172.31 150.151 1172.5 149.789 1172.88 149.66C1173.22 149.556 1173.61 149.736 1173.73 150.097C1174.84 154.016 1175.22 156.774 1175.35 157.78C1175.39 158.141 1175.11 158.502 1174.74 158.554C1174.72 158.529 1174.69 158.529 1174.64 158.529ZM1170.49 143.68C1170.23 143.68 1169.97 143.526 1169.87 143.294C1168.89 140.948 1167.76 138.655 1166.54 136.464C1166.36 136.155 1166.48 135.716 1166.81 135.536C1167.13 135.355 1167.55 135.457 1167.75 135.766C1169.02 138.008 1170.15 140.354 1171.15 142.725C1171.3 143.06 1171.13 143.473 1170.78 143.602C1170.7 143.68 1170.6 143.68 1170.49 143.68ZM1162.97 130.305C1162.76 130.305 1162.55 130.203 1162.43 130.022C1160.94 127.961 1159.32 125.977 1157.62 124.123C1157.36 123.839 1157.4 123.427 1157.68 123.168C1157.97 122.91 1158.39 122.935 1158.65 123.193C1160.38 125.073 1162.02 127.109 1163.56 129.221C1163.79 129.531 1163.7 129.943 1163.4 130.176C1163.26 130.253 1163.13 130.305 1162.97 130.305ZM1152.62 118.945C1152.47 118.945 1152.31 118.894 1152.18 118.791C1150.26 117.117 1148.23 115.521 1146.15 114.079C1145.84 113.873 1145.77 113.435 1146.02 113.151C1146.24 112.841 1146.69 112.763 1146.97 112.969C1149.08 114.463 1151.16 116.085 1153.11 117.784C1153.39 118.016 1153.4 118.454 1153.16 118.738C1153.02 118.867 1152.81 118.945 1152.62 118.945ZM1139.98 110.09C1139.88 110.09 1139.74 110.064 1139.64 110.013C1137.47 108.803 1135.14 107.646 1132.75 106.565C1132.41 106.411 1132.26 106.024 1132.43 105.689C1132.6 105.354 1133.03 105.198 1133.37 105.353C1135.81 106.433 1138.17 107.616 1140.36 108.851C1140.7 109.031 1140.79 109.444 1140.6 109.779C1140.46 109.96 1140.22 110.089 1139.98 110.09ZM1125.78 103.763C1123.17 102.915 1120.67 102.144 1118.11 101.477C1117.74 101.374 1117.55 101.014 1117.64 100.652C1117.75 100.291 1118.16 100.084 1118.5 100.161C1121.08 100.829 1123.64 101.599 1126.03 102.447C1126.4 102.576 1126.57 102.963 1126.43 103.298C1126.34 103.582 1126.07 103.763 1125.78 103.763ZM1110.63 99.7583C1108.04 99.2714 1105.45 98.862 1102.77 98.53C1102.4 98.4788 1102.15 98.1439 1102.19 97.7828C1102.23 97.4217 1102.61 97.1376 1102.97 97.1887C1105.67 97.5207 1108.29 97.956 1110.78 98.4171C1111.15 98.4941 1111.37 98.8548 1111.31 99.2159C1111.25 99.5512 1110.95 99.7579 1110.63 99.7583Z" fill="#151515"/>
<path d="M983.708 158.634C983.158 158.506 982.959 158.119 983.077 157.758C983.106 157.655 984.07 154.841 986.223 150.4C986.393 150.064 986.794 149.909 987.132 150.063C987.47 150.218 987.616 150.605 987.447 150.94C985.324 155.278 984.36 158.092 984.359 158.118C984.295 158.453 983.998 158.634 983.708 158.634ZM990.619 144.408C990.513 144.408 990.382 144.382 990.278 144.331C989.941 144.151 989.849 143.738 990.044 143.428C991.386 141.156 992.833 138.909 994.384 136.714C994.606 136.404 995.031 136.326 995.342 136.506C995.652 136.712 995.744 137.125 995.523 137.435C993.999 139.604 992.579 141.825 991.238 144.046C991.099 144.278 990.857 144.408 990.619 144.408ZM999.735 131.391C999.577 131.392 999.447 131.34 999.317 131.263C999.034 131.031 998.968 130.618 999.216 130.308C1000.92 128.242 1002.7 126.227 1004.56 124.315C1004.84 124.031 1005.26 124.031 1005.54 124.262C1005.82 124.52 1005.81 124.933 1005.56 125.217C1003.73 127.103 1001.95 129.092 1000.3 131.133C1000.13 131.314 999.92 131.391 999.735 131.391ZM1010.83 119.947C1010.65 119.947 1010.47 119.87 1010.34 119.741C1010.08 119.457 1010.12 119.044 1010.42 118.786C1012.46 117.003 1014.58 115.323 1016.72 113.747C1017.04 113.514 1017.46 113.565 1017.69 113.875C1017.92 114.158 1017.85 114.597 1017.52 114.829C1015.41 116.354 1013.33 118.034 1011.34 119.791C1011.15 119.895 1010.99 119.947 1010.83 119.947ZM1023.74 110.513C1023.5 110.513 1023.29 110.41 1023.17 110.204C1022.97 109.894 1023.09 109.481 1023.41 109.274C1025.73 107.878 1028.12 106.585 1030.51 105.421C1030.83 105.24 1031.25 105.394 1031.42 105.73C1031.57 106.065 1031.43 106.478 1031.08 106.633C1028.74 107.771 1026.38 109.039 1024.11 110.435C1023.98 110.487 1023.85 110.512 1023.74 110.513ZM1038.1 103.502C1037.84 103.503 1037.58 103.348 1037.48 103.064C1037.36 102.729 1037.53 102.342 1037.91 102.187C1040.42 101.229 1042.98 100.374 1045.54 99.6485C1045.91 99.5448 1046.28 99.7508 1046.37 100.112C1046.47 100.473 1046.24 100.835 1045.87 100.938C1043.34 101.664 1040.8 102.493 1038.34 103.425C1038.26 103.502 1038.18 103.502 1038.1 103.502ZM1053.46 99.1229C1053.14 99.1232 1052.86 98.8913 1052.79 98.5818C1052.72 98.2206 1052.97 97.859 1053.34 97.7812C1055.95 97.2619 1058.6 96.8459 1061.28 96.5588C1061.73 96.4808 1061.98 96.7902 1062.02 97.1514C1062.06 97.5126 1061.76 97.8484 1061.39 97.9005C1058.77 98.2133 1056.14 98.6035 1053.59 99.1227C1053.53 99.1228 1053.48 99.1228 1053.46 99.1229ZM1069.26 97.2459C1068.89 97.2463 1068.61 96.9628 1068.59 96.6016C1068.58 96.2403 1068.88 95.9045 1069.28 95.8782C1070.49 95.7993 1071.71 95.7463 1072.9 95.6932C1073.27 95.6412 1073.6 95.9762 1073.59 96.3375C1073.61 96.6987 1073.28 97.0088 1072.91 97.035C1071.72 97.0881 1070.53 97.1411 1069.31 97.22C1069.28 97.2458 1069.28 97.2458 1069.26 97.2459Z" fill="#151515"/>
<path d="M1421.04 318.813C1420.91 318.814 1420.75 318.788 1420.65 318.685C1420.34 318.479 1420.3 318.042 1420.52 317.732C1422.08 315.696 1423.59 313.531 1425.04 311.314C1425.24 310.979 1425.66 310.901 1425.99 311.081C1426.3 311.287 1426.39 311.699 1426.2 312.008C1424.71 314.276 1423.18 316.467 1421.62 318.529C1421.48 318.71 1421.27 318.813 1421.04 318.813ZM1429.72 305.591C1429.62 305.591 1429.52 305.565 1429.41 305.514C1429.08 305.334 1428.96 304.922 1429.15 304.613C1430.46 302.319 1431.68 299.974 1432.78 297.68C1432.94 297.345 1433.34 297.164 1433.68 297.344C1434.01 297.498 1434.16 297.884 1433.99 298.219C1432.87 300.564 1431.64 302.935 1430.31 305.255C1430.2 305.461 1429.96 305.59 1429.72 305.591ZM1436.48 291.391C1435.91 291.237 1435.74 290.851 1435.86 290.491C1436.8 288.068 1437.66 285.595 1438.4 283.147C1438.51 282.786 1438.89 282.58 1439.25 282.657C1439.61 282.759 1439.81 283.12 1439.72 283.48C1438.99 285.954 1438.12 288.479 1437.15 290.927C1437.04 291.21 1436.77 291.391 1436.48 291.391ZM1440.97 276.422C1440.47 276.345 1440.25 276.011 1440.31 275.65C1440.84 273.1 1441.24 270.524 1441.5 268.025C1441.54 267.639 1441.91 267.406 1442.25 267.406C1442.62 267.431 1442.9 267.766 1442.86 268.126C1442.59 270.677 1442.17 273.278 1441.64 275.88C1441.58 276.189 1441.28 276.422 1440.97 276.422ZM1442.59 260.993C1442.23 260.993 1441.92 260.71 1441.93 260.349C1441.94 257.8 1441.81 255.224 1441.53 252.701C1441.49 252.34 1441.76 252.005 1442.13 251.953C1442.5 251.875 1442.83 252.158 1442.89 252.519C1443.18 255.068 1443.3 257.695 1443.29 260.296C1443.28 260.683 1442.98 260.992 1442.59 260.993ZM1440.9 245.67C1440.58 245.67 1440.33 245.465 1440.26 245.156C1439.71 242.684 1439.01 240.238 1438.17 237.844C1438.05 237.509 1438.25 237.122 1438.59 236.968C1438.96 236.838 1439.35 236.992 1439.47 237.353C1440.3 239.799 1441.03 242.296 1441.6 244.794C1441.7 245.154 1441.45 245.515 1441.08 245.618C1441.03 245.67 1440.97 245.67 1440.9 245.67ZM1435.88 231.202C1435.62 231.202 1435.39 231.073 1435.29 230.842C1434.21 228.602 1433.01 226.337 1431.69 224.15C1431.49 223.841 1431.61 223.429 1431.93 223.222C1432.25 223.041 1432.67 223.118 1432.87 223.427C1434.2 225.666 1435.44 227.931 1436.54 230.222C1436.68 230.557 1436.54 230.969 1436.19 231.124C1436.09 231.201 1435.98 231.201 1435.88 231.202ZM1427.97 218.127C1427.76 218.128 1427.55 218.025 1427.43 217.87C1425.9 215.838 1424.26 213.908 1422.52 212.081C1422.27 211.824 1422.28 211.386 1422.55 211.128C1422.82 210.87 1423.27 210.87 1423.52 211.127C1425.29 212.979 1426.97 214.961 1428.53 217.019C1428.75 217.328 1428.69 217.74 1428.37 217.972C1428.26 218.075 1428.1 218.127 1427.97 218.127ZM1417.35 207.091C1417.2 207.091 1417.04 207.04 1416.94 206.937C1415 205.368 1412.91 203.877 1410.76 202.514C1410.45 202.309 1410.36 201.897 1410.58 201.587C1410.8 201.278 1411.22 201.2 1411.53 201.38C1413.73 202.768 1415.88 204.285 1417.86 205.906C1418.14 206.137 1418.18 206.575 1417.93 206.858C1417.75 207.013 1417.56 207.091 1417.35 207.091ZM1404.32 198.916C1404.21 198.917 1404.11 198.891 1404.03 198.865C1401.77 197.786 1399.37 196.81 1396.94 195.938C1396.58 195.809 1396.41 195.423 1396.55 195.088C1396.69 194.727 1397.06 194.547 1397.43 194.675C1399.91 195.548 1402.36 196.549 1404.65 197.628C1404.98 197.782 1405.12 198.194 1404.93 198.529C1404.84 198.761 1404.58 198.916 1404.32 198.916ZM1335.18 194.853C1334.89 194.853 1334.61 194.673 1334.54 194.364C1334.45 194.004 1334.67 193.643 1335.04 193.539C1335.14 193.513 1338.02 192.686 1342.83 191.83C1343.19 191.752 1343.55 192.01 1343.59 192.37C1343.66 192.731 1343.39 193.092 1343.02 193.143C1338.26 193.999 1335.39 194.827 1335.36 194.827C1335.31 194.853 1335.23 194.853 1335.18 194.853ZM1389.69 193.783C1387.13 193.168 1384.56 192.656 1381.93 192.273C1381.57 192.222 1381.32 191.861 1381.38 191.501C1381.44 191.14 1381.84 190.908 1382.18 190.933C1384.86 191.342 1387.43 191.854 1389.89 192.469C1390.26 192.572 1390.48 192.932 1390.36 193.293C1390.3 193.576 1390.01 193.783 1389.69 193.783ZM1350.71 191.975C1350.37 191.976 1350.09 191.718 1350.05 191.384C1350.01 191.023 1350.28 190.688 1350.68 190.636C1353.3 190.324 1355.95 190.089 1358.57 189.931C1359.01 189.956 1359.26 190.188 1359.28 190.574C1359.29 190.96 1358.99 191.27 1358.63 191.296C1356.03 191.454 1353.41 191.689 1350.82 192.001C1350.77 191.975 1350.74 191.975 1350.71 191.975ZM1374.28 191.38C1371.67 191.177 1369.03 191.078 1366.42 191.081C1366.05 191.081 1365.75 190.772 1365.76 190.412C1365.77 190.051 1366.1 189.742 1366.46 189.741C1369.1 189.764 1371.76 189.864 1374.37 190.041C1374.74 190.066 1375.01 190.401 1374.98 190.761C1374.94 191.096 1374.62 191.38 1374.28 191.38Z" fill="#151515"/>
<path d="M1086.3 108.446C1080.11 108.454 1075.26 103.538 1075.46 97.4559C1075.65 91.3741 1080.85 86.4458 1087.02 86.4384C1093.21 86.431 1098.06 91.3729 1097.87 97.429C1097.67 103.511 1092.49 108.439 1086.3 108.446ZM1086.98 87.7785C1081.54 87.785 1076.99 92.1198 1076.82 97.4543C1076.65 102.789 1080.91 107.113 1086.34 107.106C1091.78 107.1 1096.33 102.765 1096.5 97.4306C1096.68 92.0961 1092.41 87.772 1086.98 87.7785Z" fill="#0F132D"/>
</svg>
